<?xml version="1.0" encoding="utf-8"?>
<!-- Generator: Adobe Illustrator 23.0.1, SVG Export Plug-In . SVG Version: 6.00 Build 0)  -->
<svg version="1.1" id="Layer_1" xmlns="http://www.w3.org/2000/svg" xmlns:xlink="http://www.w3.org/1999/xlink" x="0px" y="0px"
	 viewBox="0 0 711 152.8" style="enable-background:new 0 0 711 152.8;" xml:space="preserve">
<style type="text/css">
	.st0{fill:#FFFFFF;}
	.st1{fill:none;stroke:#FFFFFF;stroke-width:1.0699;stroke-miterlimit:10;}
</style>
<g>
	<path class="st0" d="M302.9,465.9c-1.1-1.8-2.8-3.2-4.8-4.2c-2.1-1-4.5-1.5-7.2-1.5c-0.4,0-1.2,0-2.3,0.1c-0.9,0.1-1.8,0.1-2.7,0.1
		c-0.6,0-1.5,0-2.5-0.1l-1.9,0c-0.1,0-0.1,0.1-0.1,0.2c0,0.2,0,0.2,0.1,0.2c1,0,1.7,0.1,2.2,0.2c0.5,0.1,0.8,0.4,1,0.8
		s0.3,0.9,0.3,1.7v17.8c0,0.8-0.1,1.3-0.3,1.7c-0.2,0.4-0.5,0.6-1,0.8c-0.5,0.1-1.2,0.2-2.2,0.2c-0.1,0-0.1,0.1-0.1,0.2
		c0,0.2,0,0.2,0.1,0.2c0.8,0,1.5,0,1.9,0l2.5,0c0.6,0,1.2,0,1.8,0s1,0.1,1.3,0.1c0.9,0.1,1.8,0.1,2.5,0.1c2.4,0,4.6-0.5,6.6-1.6
		c2-1,3.6-2.5,4.8-4.4s1.8-4.1,1.8-6.6C304.6,469.6,304.1,467.7,302.9,465.9z M300.7,478.8c-0.9,1.7-2.2,3-3.9,3.9
		c-1.7,0.9-3.6,1.3-5.7,1.3c-1.1,0-2-0.1-2.6-0.3c-0.6-0.2-1-0.6-1.2-1c-0.2-0.5-0.3-1.1-0.3-1.8v-17.3c0-0.8,0.1-1.4,0.4-1.8
		c0.3-0.4,0.7-0.7,1.3-0.8c0.6-0.1,1.5-0.2,2.6-0.2c2.2,0,4.1,0.5,5.7,1.6c1.7,1.1,2.9,2.5,3.8,4.3s1.3,3.9,1.3,6.1
		C302.1,475.1,301.6,477.1,300.7,478.8z"/>
	<path class="st0" d="M340.2,482.3c0-0.1-0.1-0.2-0.2-0.2h-0.1c-0.4,0.2-0.8,0.3-1.2,0.4c-0.4,0.1-0.7,0.2-0.9,0.2
		c-0.5,0-0.9-0.2-1.1-0.6c-0.2-0.4-0.3-1-0.3-1.9v-10.9c0-0.1,0-0.1-0.1-0.2c-0.1-0.1-0.1-0.1-0.2-0.1l-0.1,0l-4,1.8
		c-0.1,0-0.1,0.1-0.1,0.2c0,0.1,0.1,0.2,0.2,0.2h0.1c0.5-0.3,1-0.4,1.4-0.4c0.4,0,0.7,0.2,0.9,0.7s0.3,1.2,0.3,2.3v6.7
		c-0.6,0.7-1.3,1.3-2.1,1.7c-1.1,0.6-2.1,0.9-3.2,0.9c-1.1,0-1.9-0.4-2.4-1.1c-0.5-0.7-0.8-1.9-0.8-3.4v-9.4c0-0.1,0-0.1-0.1-0.2
		c-0.1-0.1-0.1-0.1-0.2-0.1l-0.2,0l-4,1.8c-0.1,0-0.1,0.1-0.1,0.2c0,0.1,0.1,0.2,0.2,0.2h0.1c0.5-0.3,1-0.4,1.4-0.4
		c0.4,0,0.7,0.2,0.9,0.7s0.3,1.2,0.3,2.3v6c0,1.5,0.4,2.7,1.1,3.5c0.7,0.8,1.7,1.2,2.9,1.2c1.2,0,2.4-0.3,3.6-1
		c0.9-0.5,1.8-1.3,2.7-2.3v0.4c0,0.9,0.1,1.6,0.4,2.2c0.2,0.6,0.5,0.9,0.7,0.9l0.2,0l4.3-2C340.2,482.5,340.3,482.5,340.2,482.3z"/>
	<path class="st0" d="M372.4,472.1c-0.6-1.1-1.3-1.9-2.2-2.4c-0.9-0.5-1.9-0.8-3-0.8c-1.5,0-2.7,0.4-3.8,1.2
		c-0.8,0.6-1.7,1.4-2.6,2.3v-15.8c0-0.1,0-0.1-0.1-0.2c-0.1-0.1-0.1-0.1-0.2-0.1l-0.2,0l-4.6,2.3c-0.1,0-0.1,0.1-0.1,0.2
		c0,0.1,0.1,0.2,0.2,0.2h0.1c0.8-0.4,1.4-0.5,1.8-0.5c0.5,0,0.8,0.2,1,0.6c0.2,0.4,0.3,1.1,0.3,2v19.1c0,1-0.2,1.7-0.5,2.1
		c-0.3,0.5-0.9,1-1.8,1.6c-0.1,0.1-0.1,0.2-0.1,0.3s0.1,0.1,0.2,0.1h0.1l2.8-1.3c1.5,1.1,3.3,1.7,5.2,1.7c1.4,0,2.8-0.3,4.1-1
		c1.3-0.7,2.4-1.7,3.2-3c0.8-1.3,1.2-2.9,1.2-4.8C373.2,474.5,372.9,473.2,372.4,472.1z M369.7,482.3c-0.9,1.2-2.1,1.8-3.7,1.8
		c-0.8,0-1.6-0.2-2.4-0.5c-0.8-0.3-1.5-0.8-2.1-1.5c-0.6-0.7-0.9-1.5-0.9-2.6v-6.5c0.8-0.9,1.6-1.6,2.4-2.1c0.9-0.6,1.9-1,2.9-1
		c1.5,0,2.7,0.6,3.7,1.9c0.9,1.3,1.4,3.1,1.4,5.4C371.1,479.5,370.6,481.1,369.7,482.3z"/>
	<path class="st0" d="M405.5,482.2L405.5,482.2c-1,0.4-1.7,0.6-2.2,0.6c-0.5,0-0.9-0.2-1.1-0.6c-0.2-0.4-0.3-1.1-0.3-2v-7.3
		c0-1.2-0.3-2.1-0.8-2.8c-0.5-0.7-1.3-1-2.3-1c-0.8,0-1.8,0.2-2.9,0.6c-1.1,0.4-2,0.9-2.8,1.5c-0.8,0.6-1.1,1.2-1.1,1.8
		c0,0.3,0.1,0.5,0.3,0.8c0.2,0.2,0.5,0.3,0.8,0.3c0.4,0,0.7-0.1,0.9-0.4c0.1-0.2,0.3-0.6,0.4-1.1c0.2-0.7,0.5-1.4,1-1.9
		c0.5-0.6,1.2-0.8,2-0.8c1.7,0,2.6,1.4,2.6,4.2v2.7l-4.4,1.7c-1.4,0.5-2.4,1.1-2.9,1.6c-0.6,0.6-0.8,1.2-0.8,1.9
		c0,0.7,0.3,1.3,0.8,1.8c0.5,0.5,1.2,0.8,2.1,0.8c0.5,0,1-0.1,1.5-0.3c0.5-0.2,1.1-0.5,1.7-0.9l2.1-1.3c0,0.7,0.2,1.2,0.3,1.7
		c0.2,0.6,0.5,0.8,0.9,0.8c0.1,0,0.2,0,0.3-0.1l4-1.9c0.1-0.1,0.1-0.1,0.1-0.3C405.7,482.3,405.6,482.2,405.5,482.2z M398.2,482.6
		c-0.8,0.4-1.4,0.7-2,0.7c-0.7,0-1.2-0.2-1.6-0.7c-0.4-0.4-0.6-1-0.6-1.6c0-0.5,0.1-0.9,0.4-1.3c0.3-0.4,0.8-0.7,1.5-1l4.1-1.6v4.2
		c0,0,0,0.1,0,0.1L398.2,482.6z"/>
	<g>
		<path class="st0" d="M425.9,464.4c0.5,0,0.8-0.1,1.1-0.4c0.3-0.3,0.4-0.6,0.4-1.1c0-0.5-0.1-0.8-0.4-1.1c-0.3-0.3-0.6-0.4-1.1-0.4
			c-0.5,0-0.9,0.1-1.1,0.4c-0.3,0.3-0.4,0.6-0.4,1.1c0,0.5,0.1,0.8,0.4,1.1C425,464.3,425.4,464.4,425.9,464.4z"/>
		<path class="st0" d="M429.6,483.8c-0.7,0-1.3-0.1-1.6-0.2c-0.3-0.1-0.6-0.4-0.7-0.8c-0.1-0.4-0.2-0.9-0.2-1.7v-7.3
			c0-1.1,0-2.1,0-3s0-1.4,0-1.5c0-0.1,0-0.1-0.1-0.2c-0.1-0.1-0.1-0.1-0.2-0.1l-0.2,0l-4.8,2.2c-0.1,0.1-0.1,0.1-0.1,0.3
			c0.1,0.1,0.1,0.2,0.2,0.2h0c0.7-0.4,1.4-0.6,1.8-0.6c0.5,0,0.8,0.2,1,0.6s0.3,1.1,0.3,2v7.3c0,0.8-0.1,1.3-0.2,1.7
			c-0.1,0.4-0.4,0.6-0.7,0.8c-0.3,0.1-0.9,0.2-1.6,0.2c-0.1,0-0.1,0.1-0.1,0.2c0,0.2,0,0.2,0.1,0.2c0.6,0,1.1,0,1.4,0l2,0l2,0
			c0.3,0,0.8,0,1.4,0c0.1,0,0.1-0.1,0.1-0.2C429.7,483.9,429.7,483.8,429.6,483.8z"/>
	</g>
</g>
<g>
	<path class="st0" d="M57.6,390.4c-0.4,0-0.7,0.1-0.7,0.3c-1.4,10.1-6.1,15.2-14,15.2H27.6c-3,0-5.3-0.2-6.6-0.6
		c-1.4-0.4-2.4-1.1-2.9-2.2c-0.5-1.1-0.8-2.8-0.8-5.1v-54.9c0-2.4,0.3-4.2,0.8-5.3c0.5-1.2,1.5-2,3-2.4c1.5-0.4,3.8-0.7,6.9-0.7
		c0.2,0,0.2-0.2,0.2-0.7c0-0.5-0.1-0.7-0.2-0.7l-5.6,0.1c-3.4,0.2-6.1,0.2-8.3,0.2c-1.9,0-4.6-0.1-7.9-0.2l-5.9-0.1
		c-0.2,0-0.2,0.2-0.2,0.7c0,0.5,0.1,0.7,0.2,0.7c3.1,0,5.4,0.2,6.9,0.7c1.5,0.4,2.5,1.2,3,2.3c0.5,1.1,0.8,2.9,0.8,5.3v55.5
		c0,2.4-0.3,4.2-0.8,5.3c-0.5,1.2-1.5,1.9-3,2.3c-1.5,0.4-3.8,0.6-6.9,0.6c-0.2,0-0.2,0.2-0.2,0.7c0,0.5,0.1,0.7,0.2,0.7h55.1
		c0.7,0,1.2-0.1,1.4-0.4c0.2-0.3,0.4-0.7,0.4-1.4c0-4.1,0.4-9.3,1.1-15.6C58.2,390.6,58,390.5,57.6,390.4z"/>
	<path class="st0" d="M154.6,333.3l-4.9,0.1c-2.4,0.2-4.3,0.2-5.8,0.2c-1.7,0-3.9-0.1-6.6-0.2l-5-0.1c-0.2,0-0.4,0.2-0.4,0.7
		c0,0.5,0.1,0.7,0.4,0.7c3.5,0,6.1,0.9,7.7,2.7c1.6,1.8,2.5,4.6,2.5,8.4v34.4c0,8.1-2,14.5-6.1,19.1c-4.1,4.6-9.7,6.9-17,6.9
		c-7.9,0-14.1-2.5-18.5-7.6c-4.4-5.1-6.6-12.3-6.6-21.6v-33.8c0-2.4,0.3-4.2,0.8-5.3c0.5-1.2,1.5-2,2.9-2.5c1.4-0.5,3.7-0.7,6.8-0.7
		c0.2,0,0.4-0.2,0.4-0.7c0-0.5-0.1-0.7-0.4-0.7l-5.5,0.1c-3.4,0.2-6.1,0.2-8.3,0.2c-2,0-4.7-0.1-8-0.2l-5.8-0.1
		c-0.2,0-0.2,0.2-0.2,0.7c0,0.5,0.1,0.7,0.2,0.7c3.1,0,5.4,0.2,6.9,0.7c1.5,0.4,2.5,1.2,3,2.3c0.5,1.1,0.8,2.9,0.8,5.3v38.2
		c0,5.7,1.2,10.7,3.6,15c2.4,4.3,5.8,7.6,10.2,10c4.4,2.4,9.5,3.5,15.5,3.5c8.5,0,15.3-2.6,20.4-7.8c5-5.2,7.5-12.5,7.5-21.8v-34.3
		c0-3.8,0.8-6.7,2.3-8.4s3.9-2.7,7.2-2.7c0.2,0,0.2-0.2,0.2-0.7C154.8,333.6,154.7,333.3,154.6,333.3z"/>
	<path class="st0" d="M247.8,406.8c-3.5,0-6.4-0.6-8.6-1.9c-2.2-1.2-4.3-3.5-6.4-6.6L213,368.5l16.7-22.9
		c5.3-7.2,10.6-10.8,16.1-10.8c0.2,0,0.4-0.2,0.4-0.7c0-0.5-0.1-0.7-0.4-0.7l-4.3,0.1c-1.9,0.2-3.6,0.2-4.9,0.2c-2.3,0-5-0.1-8-0.2
		l-5.4-0.1c-0.2,0-0.4,0.2-0.4,0.7c0,0.5,0.1,0.7,0.4,0.7c4.6,0,6.9,1.4,6.9,4.1c0,1.6-1,3.8-2.9,6.6L212,366.9l-18.2-27.4
		c-0.7-1.1-1.1-2-1.1-2.5c0-0.8,0.5-1.4,1.6-1.7c1-0.4,2.8-0.5,5.2-0.5c0.2,0,0.4-0.2,0.4-0.7c0-0.5-0.1-0.7-0.4-0.7l-6.2,0.1
		c-3.8,0.2-7,0.2-9.6,0.2l-4.3-0.1c-2.1-0.2-3.6-0.2-4.6-0.2c-0.2,0-0.2,0.2-0.2,0.7c0,0.5,0.1,0.7,0.2,0.7c2.9,0,5.4,0.6,7.4,1.9
		c2.1,1.3,4.2,3.5,6.2,6.6l19.3,29.1l-18.1,24.8c-2.3,3.1-4.8,5.5-7.3,7.1c-2.6,1.6-5.2,2.5-7.9,2.5c-0.2,0-0.4,0.2-0.4,0.7
		c0,0.5,0.1,0.7,0.4,0.7c2,0,3.4,0,4.3-0.1l4.9-0.1l8,0.1c1.2,0.1,3,0.1,5.4,0.1c0.2,0,0.4-0.2,0.4-0.7c0-0.5-0.1-0.7-0.4-0.7
		c-4.9,0-7.3-1.3-7.3-4c0-1.4,0.8-3.3,2.4-5.6l16.6-23.2l18.6,28.1c0.7,1,1.1,1.9,1.1,2.5c0,0.8-0.5,1.4-1.6,1.7
		c-1,0.3-2.8,0.5-5.2,0.5c-0.2,0-0.2,0.2-0.2,0.7c0,0.5,0.1,0.7,0.2,0.7c2.5,0,4.4,0,5.9-0.1l9-0.1l6.4,0.1c1.2,0.1,2.8,0.1,4.9,0.1
		c0.2,0,0.2-0.2,0.2-0.7C248,407,248,406.8,247.8,406.8z"/>
	<path class="st0" d="M321.7,390.4c-0.5,0-0.7,0.1-0.7,0.3c-0.6,4.6-2.1,8.2-4.4,11c-2.3,2.8-5,4.2-8.2,4.2h-11
		c-3.1,0-5.4-0.2-6.8-0.6c-1.4-0.4-2.4-1.1-2.9-2.2c-0.5-1.1-0.8-2.8-0.8-5.1v-27.7h15.5c3.8,0,6.5,0.7,8,2.2c1.5,1.4,2.3,4,2.3,7.5
		c0,0.2,0.2,0.2,0.7,0.2c0.5,0,0.7-0.1,0.7-0.2l-0.1-5.6c-0.1-1.1-0.1-2.8-0.1-5.2l0.1-9.5c0-0.2-0.2-0.2-0.7-0.2s-0.7,0.1-0.7,0.2
		c0,3-0.7,5.2-2.2,6.4c-1.4,1.2-4,1.9-7.7,1.9H287v-24.3c0-2.4,0.3-4.2,0.8-5.3c0.5-1.1,1.5-1.9,2.9-2.3c1.4-0.4,3.7-0.6,6.7-0.6
		h8.3c3.5,0,6.4,1.2,8.5,3.6c2.2,2.4,3.2,5.6,3.2,9.7c0,0.2,0.2,0.4,0.7,0.4c0.4,0,0.7-0.1,0.7-0.4l-0.2-14.5c0-0.7-0.4-1.1-1.1-1.1
		H270c-0.2,0-0.2,0.2-0.2,0.7c0,0.5,0.1,0.7,0.2,0.7c3.1,0,5.4,0.2,6.9,0.7c1.5,0.4,2.5,1.2,3,2.3c0.5,1.1,0.8,2.9,0.8,5.3v55.5
		c0,2.4-0.3,4.2-0.8,5.3c-0.5,1.2-1.5,1.9-3,2.3c-1.5,0.4-3.8,0.6-6.9,0.6c-0.2,0-0.2,0.2-0.2,0.7c0,0.5,0.1,0.7,0.2,0.7h49.5
		c0.7,0,1.2-0.1,1.5-0.4c0.3-0.3,0.4-0.7,0.4-1.4c0-5.4,0.4-10.5,1.1-15.6C322.4,390.6,322.2,390.5,321.7,390.4z"/>
	<path class="st0" d="M466.6,406.8c-3.5,0-7.1-1.2-10.7-3.7c-3.6-2.4-7.8-6.4-12.5-12c-4.6-5.4-10.2-12.9-17-22.4
		c0.1-0.1,0.3-0.1,0.4-0.2c4.2-2,7.5-4.7,9.9-8.2c2.4-3.5,3.7-7.3,3.7-11.4c0-4.8-1.7-8.6-5-11.6c-3.3-2.9-8-4.4-14-4.4
		c-2.2,0-4.8,0.1-7.7,0.4c-1.1,0.1-2.5,0.2-4,0.2c-1.6,0.1-3.2,0.1-5,0.1c-2.1,0-4.7-0.1-7.9-0.2l-5.8-0.1c-0.2,0-0.4,0.2-0.4,0.7
		c0,0.5,0.1,0.7,0.4,0.7c3.1,0,5.4,0.2,6.9,0.7c1.5,0.4,2.5,1.2,3,2.3c0.5,1.1,0.8,2.9,0.8,5.3v55.5c0,2.4-0.3,4.2-0.8,5.3
		c-0.6,1.2-1.6,1.9-3.1,2.3c-1.5,0.4-3.8,0.6-7,0.6c-0.2,0-0.2,0.2-0.2,0.7c0,0.5,0.1,0.7,0.2,0.7c2.6,0,4.6,0,6-0.1l7.9-0.1
		l8.1,0.1c1.4,0.1,3.4,0.1,5.8,0.1c0.2,0,0.4-0.2,0.4-0.7c0-0.5-0.1-0.7-0.4-0.7c-3.2,0-5.5-0.2-7-0.6c-1.4-0.4-2.4-1.2-2.9-2.3
		c-0.5-1.1-0.8-2.9-0.8-5.4v-27.3c3.1,0.2,4.8,0.4,5.2,0.4c2.6,0,5.1-0.3,7.5-0.9c7.8,11.6,14.6,20.7,20.2,27.3
		c5.8,6.8,9.7,10.2,11.8,10.2h13.9c0.2,0,0.4-0.2,0.4-0.7C467,407,466.8,406.8,466.6,406.8z M408,368.4v-25.2c0-3.6,0.6-5.9,1.8-7.1
		c1.2-1.1,3.3-1.7,6.4-1.7c5.7,0,10,1.4,13,4.2c3,2.8,4.5,7.3,4.5,13.4c0,5.6-1.4,9.8-4.3,12.5c-2.8,2.8-7.6,4.1-14.2,4.1
		C412.7,368.8,410.3,368.7,408,368.4z"/>
	<path class="st0" d="M555.7,351.4c-3.1-5.8-7.5-10.5-13.2-14.1c-5.8-3.6-12.4-5.3-20-5.3c-6.8,0-13.4,1.5-20,4.4
		c-6.5,3-11.8,7.4-16,13.2c-4.2,5.9-6.2,12.9-6.2,21.1c0,7,1.6,13.5,4.7,19.5c3.2,6,7.6,10.7,13.4,14.1c5.8,3.5,12.4,5.2,19.8,5.2
		c7.5,0,14.5-1.8,20.9-5.3c6.4-3.5,11.6-8.3,15.4-14.4c3.8-6.1,5.8-12.7,5.8-20C560.3,363.4,558.8,357.2,555.7,351.4z M548.7,391.7
		c-2.6,5.1-6.2,9-10.8,11.6c-4.6,2.6-9.7,4-15.3,4c-6.7,0-12.7-1.8-18-5.4s-9.4-8.5-12.3-14.7c-2.9-6.2-4.4-13-4.4-20.4
		c0-9.9,2.6-17.7,7.8-23.5c5.2-5.8,12.4-8.6,21.7-8.6c7,0,13.2,1.6,18.5,4.9c5.3,3.3,9.4,7.8,12.3,13.7c2.9,5.9,4.4,12.6,4.4,20.1
		C552.6,380.5,551.3,386.6,548.7,391.7z"/>
	<path class="st0" d="M629.7,380.2c-1.6-2.6-3.6-4.7-5.9-6.3c-2.3-1.6-5.5-3.7-9.6-6.2c-3.9-2.3-7-4.3-9.2-5.8
		c-2.2-1.6-4.1-3.5-5.6-5.8c-1.5-2.3-2.3-5.1-2.3-8.3c0-3.9,1.1-7.3,3.4-10.1c2.2-2.8,5.8-4.2,10.5-4.2c5.2,0,9.2,1.6,12,4.9
		c2.8,3.3,4.4,7,4.7,11.1c0.1,0.3,0.3,0.5,0.8,0.5c0.4,0,0.7-0.2,0.7-0.5l-1.1-12.7c0-0.9-0.6-1.6-1.8-2c-4.7-1.9-9.3-2.9-13.7-2.9
		c-3.8,0-7.3,0.7-10.5,2.1c-3.3,1.4-5.9,3.5-8,6.3c-2,2.8-3.1,6.2-3.1,10.2c0,3.5,0.8,6.5,2.3,9s3.4,4.6,5.6,6.3
		c2.2,1.7,5.2,3.6,9,5.9c3.9,2.3,7,4.3,9.3,6.1c2.3,1.7,4.2,3.9,5.8,6.5c1.6,2.6,2.4,5.7,2.4,9.3c0,5-1.5,8.6-4.4,10.9
		c-2.9,2.3-6.5,3.5-10.7,3.5c-6,0-10.7-2-14.1-6.1c-3.4-4.1-5.6-8.9-6.4-14.4c-0.1-0.3-0.3-0.5-0.7-0.4c-0.4,0-0.6,0.2-0.6,0.5v0.1
		l1.8,15.6c0.1,0.6,0.2,1.1,0.3,1.4c0.1,0.3,0.4,0.6,0.8,0.8c3,1.5,5.8,2.6,8.3,3.2c2.5,0.6,5.2,0.9,8,0.9c5.3,0,9.7-0.9,13.4-2.7
		c3.6-1.8,6.4-4.2,8.2-7.3c1.8-3.1,2.8-6.5,2.8-10.2C632.2,385.8,631.4,382.7,629.7,380.2z"/>
	<path class="st0" d="M710.3,390.4c-0.5,0-0.7,0.1-0.7,0.3c-0.6,4.6-2.1,8.2-4.4,11c-2.3,2.8-5,4.2-8.2,4.2h-11
		c-3.1,0-5.4-0.2-6.8-0.6c-1.4-0.4-2.4-1.1-2.9-2.2c-0.5-1.1-0.8-2.8-0.8-5.1v-27.7H691c3.8,0,6.5,0.7,8,2.2c1.5,1.4,2.3,4,2.3,7.5
		c0,0.2,0.2,0.2,0.7,0.2c0.5,0,0.7-0.1,0.7-0.2l-0.1-5.6c-0.1-1.1-0.1-2.8-0.1-5.2l0.1-9.5c0-0.2-0.2-0.2-0.7-0.2s-0.7,0.1-0.7,0.2
		c0,3-0.7,5.2-2.2,6.4c-1.4,1.2-4,1.9-7.7,1.9h-15.8v-24.3c0-2.4,0.3-4.2,0.8-5.3c0.5-1.1,1.5-1.9,2.9-2.3c1.4-0.4,3.7-0.6,6.7-0.6
		h8.3c3.5,0,6.4,1.2,8.5,3.6c2.2,2.4,3.2,5.6,3.2,9.7c0,0.2,0.2,0.4,0.7,0.4c0.4,0,0.7-0.1,0.7-0.4l-0.2-14.5c0-0.7-0.4-1.1-1.1-1.1
		h-47.5c-0.2,0-0.2,0.2-0.2,0.7c0,0.5,0.1,0.7,0.2,0.7c3.1,0,5.4,0.2,6.9,0.7c1.5,0.4,2.5,1.2,3,2.3c0.5,1.1,0.8,2.9,0.8,5.3v55.5
		c0,2.4-0.3,4.2-0.8,5.3c-0.5,1.2-1.5,1.9-3,2.3c-1.5,0.4-3.8,0.6-6.9,0.6c-0.2,0-0.2,0.2-0.2,0.7c0,0.5,0.1,0.7,0.2,0.7H708
		c0.7,0,1.2-0.1,1.5-0.4c0.3-0.3,0.4-0.7,0.4-1.4c0-5.4,0.4-10.5,1.1-15.6C711,390.6,710.8,390.5,710.3,390.4z"/>
</g>
<g>
	<g>
		<rect x="167" y="473.9" class="st0" width="59.4" height="1.1"/>
	</g>
	<g>
		<rect x="484.6" y="473.9" class="st0" width="59.4" height="1.1"/>
	</g>
</g>
<g>
	<path d="M302.9,133.9c-1.1-1.8-2.8-3.2-4.8-4.2c-2.1-1-4.5-1.5-7.2-1.5c-0.4,0-1.2,0-2.3,0.1c-0.9,0.1-1.8,0.1-2.7,0.1
		c-0.6,0-1.5,0-2.5-0.1l-1.9,0c-0.1,0-0.1,0.1-0.1,0.2c0,0.2,0,0.2,0.1,0.2c1,0,1.7,0.1,2.2,0.2c0.5,0.1,0.8,0.4,1,0.8
		s0.3,0.9,0.3,1.7v17.8c0,0.8-0.1,1.3-0.3,1.7c-0.2,0.4-0.5,0.6-1,0.8c-0.5,0.1-1.2,0.2-2.2,0.2c-0.1,0-0.1,0.1-0.1,0.2
		c0,0.2,0,0.2,0.1,0.2c0.8,0,1.5,0,1.9,0l2.5,0c0.6,0,1.2,0,1.8,0s1,0.1,1.3,0.1c0.9,0.1,1.8,0.1,2.5,0.1c2.4,0,4.6-0.5,6.6-1.6
		c2-1,3.6-2.5,4.8-4.4s1.8-4.1,1.8-6.6C304.6,137.6,304.1,135.7,302.9,133.9z M300.7,146.8c-0.9,1.7-2.2,3-3.9,3.9
		c-1.7,0.9-3.6,1.3-5.7,1.3c-1.1,0-2-0.1-2.6-0.3c-0.6-0.2-1-0.6-1.2-1c-0.2-0.5-0.3-1.1-0.3-1.8v-17.3c0-0.8,0.1-1.4,0.4-1.8
		c0.3-0.4,0.7-0.7,1.3-0.8c0.6-0.1,1.5-0.2,2.6-0.2c2.2,0,4.1,0.5,5.7,1.6c1.7,1.1,2.9,2.5,3.8,4.3s1.3,3.9,1.3,6.1
		C302.1,143.1,301.6,145.1,300.7,146.8z"/>
	<path d="M340.2,150.3c0-0.1-0.1-0.2-0.2-0.2h-0.1c-0.4,0.2-0.8,0.3-1.2,0.4c-0.4,0.1-0.7,0.2-0.9,0.2c-0.5,0-0.9-0.2-1.1-0.6
		c-0.2-0.4-0.3-1-0.3-1.9v-10.9c0-0.1,0-0.1-0.1-0.2c-0.1-0.1-0.1-0.1-0.2-0.1l-0.1,0l-4,1.8c-0.1,0-0.1,0.1-0.1,0.2
		c0,0.1,0.1,0.2,0.2,0.2h0.1c0.5-0.3,1-0.4,1.4-0.4c0.4,0,0.7,0.2,0.9,0.7s0.3,1.2,0.3,2.3v6.7c-0.6,0.7-1.3,1.3-2.1,1.7
		c-1.1,0.6-2.1,0.9-3.2,0.9c-1.1,0-1.9-0.4-2.4-1.1c-0.5-0.7-0.8-1.9-0.8-3.4v-9.4c0-0.1,0-0.1-0.1-0.2c-0.1-0.1-0.1-0.1-0.2-0.1
		l-0.2,0l-4,1.8c-0.1,0-0.1,0.1-0.1,0.2c0,0.1,0.1,0.2,0.2,0.2h0.1c0.5-0.3,1-0.4,1.4-0.4c0.4,0,0.7,0.2,0.9,0.7s0.3,1.2,0.3,2.3v6
		c0,1.5,0.4,2.7,1.1,3.5c0.7,0.8,1.7,1.2,2.9,1.2c1.2,0,2.4-0.3,3.6-1c0.9-0.5,1.8-1.3,2.7-2.3v0.4c0,0.9,0.1,1.6,0.4,2.2
		c0.2,0.6,0.5,0.9,0.7,0.9l0.2,0l4.3-2C340.2,150.5,340.3,150.5,340.2,150.3z"/>
	<path d="M372.4,140.1c-0.6-1.1-1.3-1.9-2.2-2.4c-0.9-0.5-1.9-0.8-3-0.8c-1.5,0-2.7,0.4-3.8,1.2c-0.8,0.6-1.7,1.4-2.6,2.3v-15.8
		c0-0.1,0-0.1-0.1-0.2c-0.1-0.1-0.1-0.1-0.2-0.1l-0.2,0l-4.6,2.3c-0.1,0-0.1,0.1-0.1,0.2c0,0.1,0.1,0.2,0.2,0.2h0.1
		c0.8-0.4,1.4-0.5,1.8-0.5c0.5,0,0.8,0.2,1,0.6c0.2,0.4,0.3,1.1,0.3,2v19.1c0,1-0.2,1.7-0.5,2.1c-0.3,0.5-0.9,1-1.8,1.6
		c-0.1,0.1-0.1,0.2-0.1,0.3s0.1,0.1,0.2,0.1h0.1l2.8-1.3c1.5,1.1,3.3,1.7,5.2,1.7c1.4,0,2.8-0.3,4.1-1c1.3-0.7,2.4-1.7,3.2-3
		c0.8-1.3,1.2-2.9,1.2-4.8C373.2,142.5,372.9,141.2,372.4,140.1z M369.7,150.3c-0.9,1.2-2.1,1.8-3.7,1.8c-0.8,0-1.6-0.2-2.4-0.5
		c-0.8-0.3-1.5-0.8-2.1-1.5c-0.6-0.7-0.9-1.5-0.9-2.6v-6.5c0.8-0.9,1.6-1.6,2.4-2.1c0.9-0.6,1.9-1,2.9-1c1.5,0,2.7,0.6,3.7,1.9
		c0.9,1.3,1.4,3.1,1.4,5.4C371.1,147.5,370.6,149.1,369.7,150.3z"/>
	<path d="M405.5,150.2L405.5,150.2c-1,0.4-1.7,0.6-2.2,0.6c-0.5,0-0.9-0.2-1.1-0.6c-0.2-0.4-0.3-1.1-0.3-2v-7.3
		c0-1.2-0.3-2.1-0.8-2.8c-0.5-0.7-1.3-1-2.3-1c-0.8,0-1.8,0.2-2.9,0.6c-1.1,0.4-2,0.9-2.8,1.5c-0.8,0.6-1.1,1.2-1.1,1.8
		c0,0.3,0.1,0.5,0.3,0.8c0.2,0.2,0.5,0.3,0.8,0.3c0.4,0,0.7-0.1,0.9-0.4c0.1-0.2,0.3-0.6,0.4-1.1c0.2-0.7,0.5-1.4,1-1.9
		c0.5-0.6,1.2-0.8,2-0.8c1.7,0,2.6,1.4,2.6,4.2v2.7l-4.4,1.7c-1.4,0.5-2.4,1.1-2.9,1.6c-0.6,0.6-0.8,1.2-0.8,1.9
		c0,0.7,0.3,1.3,0.8,1.8c0.5,0.5,1.2,0.8,2.1,0.8c0.5,0,1-0.1,1.5-0.3c0.5-0.2,1.1-0.5,1.7-0.9l2.1-1.3c0,0.7,0.2,1.2,0.3,1.7
		c0.2,0.6,0.5,0.8,0.9,0.8c0.1,0,0.2,0,0.3-0.1l4-1.9c0.1-0.1,0.1-0.1,0.1-0.3C405.7,150.3,405.6,150.2,405.5,150.2z M398.2,150.6
		c-0.8,0.4-1.4,0.7-2,0.7c-0.7,0-1.2-0.2-1.6-0.7c-0.4-0.4-0.6-1-0.6-1.6c0-0.5,0.1-0.9,0.4-1.3c0.3-0.4,0.8-0.7,1.5-1l4.1-1.6v4.2
		c0,0,0,0.1,0,0.1L398.2,150.6z"/>
	<g>
		<path d="M425.9,132.4c0.5,0,0.8-0.1,1.1-0.4c0.3-0.3,0.4-0.6,0.4-1.1c0-0.5-0.1-0.8-0.4-1.1c-0.3-0.3-0.6-0.4-1.1-0.4
			c-0.5,0-0.9,0.1-1.1,0.4c-0.3,0.3-0.4,0.6-0.4,1.1c0,0.5,0.1,0.8,0.4,1.1C425,132.3,425.4,132.4,425.9,132.4z"/>
		<path d="M429.6,151.8c-0.7,0-1.3-0.1-1.6-0.2c-0.3-0.1-0.6-0.4-0.7-0.8c-0.1-0.4-0.2-0.9-0.2-1.7v-7.3c0-1.1,0-2.1,0-3
			s0-1.4,0-1.5c0-0.1,0-0.1-0.1-0.2c-0.1-0.1-0.1-0.1-0.2-0.1l-0.2,0l-4.8,2.2c-0.1,0.1-0.1,0.1-0.1,0.3c0.1,0.1,0.1,0.2,0.2,0.2h0
			c0.7-0.4,1.4-0.6,1.8-0.6c0.5,0,0.8,0.2,1,0.6s0.3,1.1,0.3,2v7.3c0,0.8-0.1,1.3-0.2,1.7c-0.1,0.4-0.4,0.6-0.7,0.8
			c-0.3,0.1-0.9,0.2-1.6,0.2c-0.1,0-0.1,0.1-0.1,0.2c0,0.2,0,0.2,0.1,0.2c0.6,0,1.1,0,1.4,0l2,0l2,0c0.3,0,0.8,0,1.4,0
			c0.1,0,0.1-0.1,0.1-0.2C429.7,151.9,429.7,151.8,429.6,151.8z"/>
	</g>
</g>
<g>
	<path d="M57.6,58.4c-0.4,0-0.7,0.1-0.7,0.3c-1.4,10.1-6.1,15.2-14,15.2H27.6c-3,0-5.3-0.2-6.6-0.6c-1.4-0.4-2.4-1.1-2.9-2.2
		c-0.5-1.1-0.8-2.8-0.8-5.1V11.1c0-2.4,0.3-4.2,0.8-5.3c0.5-1.2,1.5-2,3-2.4c1.5-0.4,3.8-0.7,6.9-0.7c0.2,0,0.2-0.2,0.2-0.7
		c0-0.5-0.1-0.7-0.2-0.7l-5.6,0.1c-3.4,0.2-6.1,0.2-8.3,0.2c-1.9,0-4.6-0.1-7.9-0.2L0.2,1.3C0.1,1.3,0,1.6,0,2
		c0,0.5,0.1,0.7,0.2,0.7c3.1,0,5.4,0.2,6.9,0.7c1.5,0.4,2.5,1.2,3,2.3c0.5,1.1,0.8,2.9,0.8,5.3v55.5c0,2.4-0.3,4.2-0.8,5.3
		c-0.5,1.2-1.5,1.9-3,2.3c-1.5,0.4-3.8,0.6-6.9,0.6C0.1,74.8,0,75,0,75.5c0,0.5,0.1,0.7,0.2,0.7h55.1c0.7,0,1.2-0.1,1.4-0.4
		c0.2-0.3,0.4-0.7,0.4-1.4c0-4.1,0.4-9.3,1.1-15.6C58.2,58.6,58,58.5,57.6,58.4z"/>
	<path d="M154.6,1.3l-4.9,0.1c-2.4,0.2-4.3,0.2-5.8,0.2c-1.7,0-3.9-0.1-6.6-0.2l-5-0.1c-0.2,0-0.4,0.2-0.4,0.7
		c0,0.5,0.1,0.7,0.4,0.7c3.5,0,6.1,0.9,7.7,2.7c1.6,1.8,2.5,4.6,2.5,8.4v34.4c0,8.1-2,14.5-6.1,19.1c-4.1,4.6-9.7,6.9-17,6.9
		c-7.9,0-14.1-2.5-18.5-7.6c-4.4-5.1-6.6-12.3-6.6-21.6V11.3c0-2.4,0.3-4.2,0.8-5.3c0.5-1.2,1.5-2,2.9-2.5c1.4-0.5,3.7-0.7,6.8-0.7
		c0.2,0,0.4-0.2,0.4-0.7c0-0.5-0.1-0.7-0.4-0.7l-5.5,0.1c-3.4,0.2-6.1,0.2-8.3,0.2c-2,0-4.7-0.1-8-0.2l-5.8-0.1
		C77.1,1.3,77,1.6,77,2c0,0.5,0.1,0.7,0.2,0.7c3.1,0,5.4,0.2,6.9,0.7c1.5,0.4,2.5,1.2,3,2.3C87.7,6.9,88,8.6,88,11v38.2
		c0,5.7,1.2,10.7,3.6,15c2.4,4.3,5.8,7.6,10.2,10c4.4,2.4,9.5,3.5,15.5,3.5c8.5,0,15.3-2.6,20.4-7.8c5-5.2,7.5-12.5,7.5-21.8V13.9
		c0-3.8,0.8-6.7,2.3-8.4s3.9-2.7,7.2-2.7c0.2,0,0.2-0.2,0.2-0.7C154.8,1.6,154.7,1.3,154.6,1.3z"/>
	<path d="M247.8,74.8c-3.5,0-6.4-0.6-8.6-1.9c-2.2-1.2-4.3-3.5-6.4-6.6L213,36.5l16.7-22.9c5.3-7.2,10.6-10.8,16.1-10.8
		c0.2,0,0.4-0.2,0.4-0.7c0-0.5-0.1-0.7-0.4-0.7l-4.3,0.1c-1.9,0.2-3.6,0.2-4.9,0.2c-2.3,0-5-0.1-8-0.2l-5.4-0.1
		c-0.2,0-0.4,0.2-0.4,0.7c0,0.5,0.1,0.7,0.4,0.7c4.6,0,6.9,1.4,6.9,4.1c0,1.6-1,3.8-2.9,6.6L212,34.9L193.8,7.5
		c-0.7-1.1-1.1-2-1.1-2.5c0-0.8,0.5-1.4,1.6-1.7c1-0.4,2.8-0.5,5.2-0.5c0.2,0,0.4-0.2,0.4-0.7c0-0.5-0.1-0.7-0.4-0.7l-6.2,0.1
		c-3.8,0.2-7,0.2-9.6,0.2l-4.3-0.1c-2.1-0.2-3.6-0.2-4.6-0.2c-0.2,0-0.2,0.2-0.2,0.7c0,0.5,0.1,0.7,0.2,0.7c2.9,0,5.4,0.6,7.4,1.9
		c2.1,1.3,4.2,3.5,6.2,6.6l19.3,29.1l-18.1,24.8c-2.3,3.1-4.8,5.5-7.3,7.1c-2.6,1.6-5.2,2.5-7.9,2.5c-0.2,0-0.4,0.2-0.4,0.7
		c0,0.5,0.1,0.7,0.4,0.7c2,0,3.4,0,4.3-0.1l4.9-0.1l8,0.1c1.2,0.1,3,0.1,5.4,0.1c0.2,0,0.4-0.2,0.4-0.7c0-0.5-0.1-0.7-0.4-0.7
		c-4.9,0-7.3-1.3-7.3-4c0-1.4,0.8-3.3,2.4-5.6L208.7,42l18.6,28.1c0.7,1,1.1,1.9,1.1,2.5c0,0.8-0.5,1.4-1.6,1.7
		c-1,0.3-2.8,0.5-5.2,0.5c-0.2,0-0.2,0.2-0.2,0.7c0,0.5,0.1,0.7,0.2,0.7c2.5,0,4.4,0,5.9-0.1l9-0.1l6.4,0.1c1.2,0.1,2.8,0.1,4.9,0.1
		c0.2,0,0.2-0.2,0.2-0.7C248,75,248,74.8,247.8,74.8z"/>
	<path d="M321.7,58.4c-0.5,0-0.7,0.1-0.7,0.3c-0.6,4.6-2.1,8.2-4.4,11c-2.3,2.8-5,4.2-8.2,4.2h-11c-3.1,0-5.4-0.2-6.8-0.6
		c-1.4-0.4-2.4-1.1-2.9-2.2c-0.5-1.1-0.8-2.8-0.8-5.1V38.3h15.5c3.8,0,6.5,0.7,8,2.2c1.5,1.4,2.3,4,2.3,7.5c0,0.2,0.2,0.2,0.7,0.2
		c0.5,0,0.7-0.1,0.7-0.2l-0.1-5.6c-0.1-1.1-0.1-2.8-0.1-5.2l0.1-9.5c0-0.2-0.2-0.2-0.7-0.2s-0.7,0.1-0.7,0.2c0,3-0.7,5.2-2.2,6.4
		c-1.4,1.2-4,1.9-7.7,1.9H287V11.7c0-2.4,0.3-4.2,0.8-5.3c0.5-1.1,1.5-1.9,2.9-2.3c1.4-0.4,3.7-0.6,6.7-0.6h8.3
		c3.5,0,6.4,1.2,8.5,3.6c2.2,2.4,3.2,5.6,3.2,9.7c0,0.2,0.2,0.4,0.7,0.4c0.4,0,0.7-0.1,0.7-0.4l-0.2-14.5c0-0.7-0.4-1.1-1.1-1.1H270
		c-0.2,0-0.2,0.2-0.2,0.7c0,0.5,0.1,0.7,0.2,0.7c3.1,0,5.4,0.2,6.9,0.7c1.5,0.4,2.5,1.2,3,2.3c0.5,1.1,0.8,2.9,0.8,5.3v55.5
		c0,2.4-0.3,4.2-0.8,5.3c-0.5,1.2-1.5,1.9-3,2.3c-1.5,0.4-3.8,0.6-6.9,0.6c-0.2,0-0.2,0.2-0.2,0.7c0,0.5,0.1,0.7,0.2,0.7h49.5
		c0.7,0,1.2-0.1,1.5-0.4c0.3-0.3,0.4-0.7,0.4-1.4c0-5.4,0.4-10.5,1.1-15.6C322.4,58.6,322.2,58.5,321.7,58.4z"/>
	<path d="M466.6,74.8c-3.5,0-7.1-1.2-10.7-3.7c-3.6-2.4-7.8-6.4-12.5-12c-4.6-5.4-10.2-12.9-17-22.4c0.1-0.1,0.3-0.1,0.4-0.2
		c4.2-2,7.5-4.7,9.9-8.2c2.4-3.5,3.7-7.3,3.7-11.4c0-4.8-1.7-8.6-5-11.6c-3.3-2.9-8-4.4-14-4.4c-2.2,0-4.8,0.1-7.7,0.4
		c-1.1,0.1-2.5,0.2-4,0.2c-1.6,0.1-3.2,0.1-5,0.1c-2.1,0-4.7-0.1-7.9-0.2l-5.8-0.1c-0.2,0-0.4,0.2-0.4,0.7c0,0.5,0.1,0.7,0.4,0.7
		c3.1,0,5.4,0.2,6.9,0.7c1.5,0.4,2.5,1.2,3,2.3c0.5,1.1,0.8,2.9,0.8,5.3v55.5c0,2.4-0.3,4.2-0.8,5.3c-0.6,1.2-1.6,1.9-3.1,2.3
		c-1.5,0.4-3.8,0.6-7,0.6c-0.2,0-0.2,0.2-0.2,0.7c0,0.5,0.1,0.7,0.2,0.7c2.6,0,4.6,0,6-0.1l7.9-0.1l8.1,0.1c1.4,0.1,3.4,0.1,5.8,0.1
		c0.2,0,0.4-0.2,0.4-0.7c0-0.5-0.1-0.7-0.4-0.7c-3.2,0-5.5-0.2-7-0.6c-1.4-0.4-2.4-1.2-2.9-2.3c-0.5-1.1-0.8-2.9-0.8-5.4V39.2
		c3.1,0.2,4.8,0.4,5.2,0.4c2.6,0,5.1-0.3,7.5-0.9c7.8,11.6,14.6,20.7,20.2,27.3c5.8,6.8,9.7,10.2,11.8,10.2h13.9
		c0.2,0,0.4-0.2,0.4-0.7C467,75,466.8,74.8,466.6,74.8z M408,36.4V11.3c0-3.6,0.6-5.9,1.8-7.1c1.2-1.1,3.3-1.7,6.4-1.7
		c5.7,0,10,1.4,13,4.2c3,2.8,4.5,7.3,4.5,13.4c0,5.6-1.4,9.8-4.3,12.5c-2.8,2.8-7.6,4.1-14.2,4.1C412.7,36.8,410.3,36.7,408,36.4z"
		/>
	<path d="M555.7,19.4c-3.1-5.8-7.5-10.5-13.2-14.1C536.7,1.8,530,0,522.4,0c-6.8,0-13.4,1.5-20,4.4c-6.5,3-11.8,7.4-16,13.2
		c-4.2,5.9-6.2,12.9-6.2,21.1c0,7,1.6,13.5,4.7,19.5c3.2,6,7.6,10.7,13.4,14.1c5.8,3.5,12.4,5.2,19.8,5.2c7.5,0,14.5-1.8,20.9-5.3
		c6.4-3.5,11.6-8.3,15.4-14.4c3.8-6.1,5.8-12.7,5.8-20C560.3,31.4,558.8,25.2,555.7,19.4z M548.7,59.7c-2.6,5.1-6.2,9-10.8,11.6
		c-4.6,2.6-9.7,4-15.3,4c-6.7,0-12.7-1.8-18-5.4s-9.4-8.5-12.3-14.7c-2.9-6.2-4.4-13-4.4-20.4c0-9.9,2.6-17.7,7.8-23.5
		c5.2-5.8,12.4-8.6,21.7-8.6c7,0,13.2,1.6,18.5,4.9c5.3,3.3,9.4,7.8,12.3,13.7c2.9,5.9,4.4,12.6,4.4,20.1
		C552.6,48.5,551.3,54.6,548.7,59.7z"/>
	<path d="M629.7,48.2c-1.6-2.6-3.6-4.7-5.9-6.3c-2.3-1.6-5.5-3.7-9.6-6.2c-3.9-2.3-7-4.3-9.2-5.8c-2.2-1.6-4.1-3.5-5.6-5.8
		c-1.5-2.3-2.3-5.1-2.3-8.3c0-3.9,1.1-7.3,3.4-10.1c2.2-2.8,5.8-4.2,10.5-4.2c5.2,0,9.2,1.6,12,4.9c2.8,3.3,4.4,7,4.7,11.1
		c0.1,0.3,0.3,0.5,0.8,0.5c0.4,0,0.7-0.2,0.7-0.5l-1.1-12.7c0-0.9-0.6-1.6-1.8-2C621.6,1,617.1,0,612.7,0c-3.8,0-7.3,0.7-10.5,2.1
		c-3.3,1.4-5.9,3.5-8,6.3c-2,2.8-3.1,6.2-3.1,10.2c0,3.5,0.8,6.5,2.3,9s3.4,4.6,5.6,6.3c2.2,1.7,5.2,3.6,9,5.9
		c3.9,2.3,7,4.3,9.3,6.1c2.3,1.7,4.2,3.9,5.8,6.5c1.6,2.6,2.4,5.7,2.4,9.3c0,5-1.5,8.6-4.4,10.9c-2.9,2.3-6.5,3.5-10.7,3.5
		c-6,0-10.7-2-14.1-6.1c-3.4-4.1-5.6-8.9-6.4-14.4c-0.1-0.3-0.3-0.5-0.7-0.4c-0.4,0-0.6,0.2-0.6,0.5v0.1l1.8,15.6
		c0.1,0.6,0.2,1.1,0.3,1.4c0.1,0.3,0.4,0.6,0.8,0.8c3,1.5,5.8,2.6,8.3,3.2c2.5,0.6,5.2,0.9,8,0.9c5.3,0,9.7-0.9,13.4-2.7
		c3.6-1.8,6.4-4.2,8.2-7.3c1.8-3.1,2.8-6.5,2.8-10.2C632.2,53.8,631.4,50.7,629.7,48.2z"/>
	<path d="M710.3,58.4c-0.5,0-0.7,0.1-0.7,0.3c-0.6,4.6-2.1,8.2-4.4,11c-2.3,2.8-5,4.2-8.2,4.2h-11c-3.1,0-5.4-0.2-6.8-0.6
		c-1.4-0.4-2.4-1.1-2.9-2.2c-0.5-1.1-0.8-2.8-0.8-5.1V38.3H691c3.8,0,6.5,0.7,8,2.2c1.5,1.4,2.3,4,2.3,7.5c0,0.2,0.2,0.2,0.7,0.2
		c0.5,0,0.7-0.1,0.7-0.2l-0.1-5.6c-0.1-1.1-0.1-2.8-0.1-5.2l0.1-9.5c0-0.2-0.2-0.2-0.7-0.2s-0.7,0.1-0.7,0.2c0,3-0.7,5.2-2.2,6.4
		c-1.4,1.2-4,1.9-7.7,1.9h-15.8V11.7c0-2.4,0.3-4.2,0.8-5.3c0.5-1.1,1.5-1.9,2.9-2.3c1.4-0.4,3.7-0.6,6.7-0.6h8.3
		c3.5,0,6.4,1.2,8.5,3.6c2.2,2.4,3.2,5.6,3.2,9.7c0,0.2,0.2,0.4,0.7,0.4c0.4,0,0.7-0.1,0.7-0.4l-0.2-14.5c0-0.7-0.4-1.1-1.1-1.1
		h-47.5c-0.2,0-0.2,0.2-0.2,0.7c0,0.5,0.1,0.7,0.2,0.7c3.1,0,5.4,0.2,6.9,0.7c1.5,0.4,2.5,1.2,3,2.3c0.5,1.1,0.8,2.9,0.8,5.3v55.5
		c0,2.4-0.3,4.2-0.8,5.3c-0.5,1.2-1.5,1.9-3,2.3c-1.5,0.4-3.8,0.6-6.9,0.6c-0.2,0-0.2,0.2-0.2,0.7c0,0.5,0.1,0.7,0.2,0.7H708
		c0.7,0,1.2-0.1,1.5-0.4c0.3-0.3,0.4-0.7,0.4-1.4c0-5.4,0.4-10.5,1.1-15.6C711,58.6,710.8,58.5,710.3,58.4z"/>
</g>
<g>
	<g>
		<rect x="167" y="141.9" width="59.4" height="1.1"/>
	</g>
	<g>
		<rect x="484.6" y="141.9" width="59.4" height="1.1"/>
	</g>
</g>
<g>
	<path class="st0" d="M1133,463c-1-1.5-2.4-2.7-4.2-3.6c-1.8-0.9-3.9-1.3-6.2-1.3c-0.4,0-1,0-2,0.1c-0.8,0.1-1.6,0.1-2.4,0.1
		c-0.5,0-1.3,0-2.2-0.1l-1.6,0c0,0-0.1,0.1-0.1,0.2c0,0.1,0,0.2,0.1,0.2c0.9,0,1.5,0.1,1.9,0.2c0.4,0.1,0.7,0.3,0.8,0.7
		c0.1,0.3,0.2,0.8,0.2,1.5v15.4c0,0.7-0.1,1.2-0.2,1.5c-0.2,0.3-0.4,0.5-0.8,0.7c-0.4,0.1-1.1,0.2-1.9,0.2c0,0-0.1,0.1-0.1,0.2
		c0,0.1,0,0.2,0.1,0.2c0.7,0,1.3,0,1.7,0l2.2,0c0.6,0,1.1,0,1.5,0c0.5,0,0.8,0,1.1,0.1c0.8,0.1,1.5,0.1,2.2,0.1c2.1,0,4-0.5,5.7-1.4
		c1.7-0.9,3.1-2.2,4.1-3.8c1-1.7,1.5-3.6,1.5-5.7C1134.5,466.3,1134,464.5,1133,463z M1131.1,474.2c-0.8,1.5-1.9,2.6-3.4,3.3
		c-1.4,0.8-3.1,1.1-5,1.1c-1,0-1.7-0.1-2.2-0.3c-0.5-0.2-0.9-0.5-1.1-0.9c-0.2-0.4-0.3-0.9-0.3-1.6v-15c0-0.7,0.1-1.2,0.4-1.5
		c0.2-0.3,0.6-0.6,1.1-0.7c0.5-0.1,1.3-0.2,2.2-0.2c1.9,0,3.5,0.5,4.9,1.4c1.4,0.9,2.5,2.2,3.3,3.7c0.8,1.6,1.1,3.3,1.1,5.3
		C1132.3,471,1131.9,472.7,1131.1,474.2z"/>
	<path class="st0" d="M1165.3,477.3c0-0.1-0.1-0.1-0.2-0.1h-0.1c-0.4,0.1-0.7,0.3-1,0.3c-0.3,0.1-0.6,0.1-0.8,0.1
		c-0.4,0-0.8-0.2-0.9-0.5c-0.2-0.3-0.3-0.9-0.3-1.6V466c0-0.1,0-0.1-0.1-0.2c-0.1,0-0.1-0.1-0.2-0.1l-0.1,0l-3.5,1.6
		c-0.1,0-0.1,0.1-0.1,0.2c0,0.1,0.1,0.2,0.2,0.2h0.1c0.5-0.2,0.9-0.3,1.2-0.3c0.4,0,0.6,0.2,0.8,0.6c0.1,0.4,0.2,1,0.2,1.9v5.8
		c-0.5,0.6-1.1,1.1-1.8,1.5c-0.9,0.5-1.8,0.8-2.7,0.8c-0.9,0-1.6-0.3-2.1-1c-0.5-0.6-0.7-1.6-0.7-3V466c0-0.1,0-0.1-0.1-0.2
		c-0.1,0-0.1-0.1-0.2-0.1l-0.1,0l-3.5,1.6c-0.1,0-0.1,0.1-0.1,0.2c0,0.1,0.1,0.2,0.2,0.2h0.1c0.5-0.2,0.9-0.3,1.2-0.3
		c0.4,0,0.6,0.2,0.7,0.6c0.1,0.4,0.2,1,0.2,1.9v5.2c0,1.3,0.3,2.3,0.9,3c0.6,0.7,1.5,1,2.5,1c1.1,0,2.1-0.3,3.1-0.9
		c0.8-0.5,1.5-1.1,2.3-2v0.3c0,0.8,0.1,1.4,0.3,1.9c0.2,0.5,0.4,0.7,0.6,0.7l0.1,0l3.7-1.7C1165.3,477.4,1165.3,477.4,1165.3,477.3z
		"/>
	<path class="st0" d="M1193.1,468.4c-0.5-0.9-1.1-1.6-1.9-2.1c-0.8-0.5-1.7-0.7-2.6-0.7c-1.3,0-2.4,0.3-3.3,1
		c-0.7,0.5-1.5,1.2-2.2,2V455c0-0.1,0-0.1-0.1-0.2c-0.1,0-0.1-0.1-0.2-0.1l-0.2,0l-4,2c-0.1,0-0.1,0.1-0.1,0.2
		c0,0.1,0.1,0.2,0.1,0.2h0.1c0.7-0.3,1.2-0.5,1.6-0.5c0.4,0,0.7,0.2,0.8,0.5c0.2,0.4,0.3,0.9,0.3,1.8v16.5c0,0.8-0.1,1.4-0.4,1.8
		c-0.3,0.4-0.8,0.9-1.6,1.4c-0.1,0.1-0.1,0.1-0.1,0.2s0.1,0.1,0.2,0.1h0.1l2.4-1.1c1.3,1,2.8,1.4,4.5,1.4c1.2,0,2.4-0.3,3.6-0.9
		c1.1-0.6,2-1.4,2.7-2.6c0.7-1.1,1.1-2.5,1.1-4.1C1193.8,470.5,1193.6,469.4,1193.1,468.4z M1190.8,477.2c-0.8,1-1.9,1.5-3.2,1.5
		c-0.7,0-1.3-0.1-2-0.4c-0.7-0.3-1.3-0.7-1.8-1.3c-0.5-0.6-0.8-1.3-0.8-2.2v-5.6c0.7-0.7,1.4-1.4,2-1.8c0.8-0.6,1.6-0.8,2.5-0.8
		c1.3,0,2.4,0.5,3.2,1.6c0.8,1.1,1.2,2.6,1.2,4.6C1192,474.8,1191.6,476.2,1190.8,477.2z"/>
	<path class="st0" d="M1221.8,477.1L1221.8,477.1c-0.9,0.3-1.5,0.5-1.9,0.5c-0.5,0-0.8-0.2-1-0.5c-0.2-0.4-0.3-0.9-0.3-1.8V469
		c0-1-0.2-1.9-0.6-2.4c-0.4-0.6-1.1-0.9-2-0.9c-0.7,0-1.6,0.2-2.5,0.5c-0.9,0.3-1.7,0.8-2.4,1.3c-0.7,0.5-1,1-1,1.5
		c0,0.2,0.1,0.5,0.3,0.6c0.2,0.2,0.4,0.3,0.7,0.3c0.4,0,0.6-0.1,0.8-0.3c0.1-0.2,0.2-0.5,0.3-0.9c0.2-0.6,0.4-1.2,0.9-1.7
		c0.4-0.5,1-0.7,1.8-0.7c1.5,0,2.3,1.2,2.3,3.7v2.3l-3.8,1.4c-1.2,0.4-2,0.9-2.5,1.4c-0.5,0.5-0.7,1.1-0.7,1.7
		c0,0.6,0.2,1.2,0.7,1.6c0.5,0.4,1.1,0.7,1.8,0.7c0.4,0,0.9-0.1,1.3-0.2c0.4-0.2,0.9-0.4,1.5-0.8l1.8-1.1c0,0.6,0.1,1.1,0.3,1.4
		c0.2,0.5,0.5,0.7,0.7,0.7c0.1,0,0.2,0,0.3-0.1l3.4-1.6c0.1,0,0.1-0.1,0.1-0.2C1221.9,477.2,1221.8,477.1,1221.8,477.1z
		 M1215.5,477.5c-0.7,0.4-1.2,0.6-1.7,0.6c-0.6,0-1.1-0.2-1.4-0.6c-0.3-0.4-0.5-0.8-0.5-1.4c0-0.4,0.1-0.8,0.4-1.1
		c0.2-0.3,0.7-0.6,1.3-0.9l3.5-1.3v3.6c0,0,0,0.1,0,0.1L1215.5,477.5z"/>
	<g>
		<path class="st0" d="M1239.4,461.7c0.4,0,0.7-0.1,0.9-0.3c0.2-0.2,0.3-0.5,0.3-0.9c0-0.4-0.1-0.7-0.3-0.9
			c-0.2-0.2-0.5-0.3-0.9-0.3c-0.4,0-0.8,0.1-1,0.3c-0.2,0.2-0.3,0.5-0.3,0.9c0,0.4,0.1,0.7,0.3,0.9
			C1238.6,461.6,1239,461.7,1239.4,461.7z"/>
		<path class="st0" d="M1242.6,478.5c-0.6,0-1.1-0.1-1.4-0.2c-0.3-0.1-0.5-0.3-0.6-0.7c-0.1-0.3-0.1-0.8-0.1-1.5v-6.3
			c0-1,0-1.8,0-2.6c0-0.7,0-1.2,0-1.3c0-0.1,0-0.1-0.1-0.2c-0.1,0-0.1-0.1-0.1-0.1l-0.1,0l-4.1,1.9c-0.1,0-0.1,0.1-0.1,0.2
			c0,0.1,0.1,0.2,0.2,0.2h0c0.6-0.3,1.2-0.5,1.6-0.5c0.4,0,0.7,0.2,0.8,0.5c0.2,0.4,0.3,0.9,0.3,1.8v6.3c0,0.7-0.1,1.2-0.2,1.5
			c-0.1,0.3-0.3,0.5-0.6,0.7c-0.3,0.1-0.8,0.2-1.4,0.2c0,0-0.1,0.1-0.1,0.2c0,0.1,0,0.2,0.1,0.2c0.5,0,0.9,0,1.2,0l1.7,0l1.8,0
			c0.3,0,0.7,0,1.2,0c0.1,0,0.1-0.1,0.1-0.2C1242.7,478.6,1242.7,478.5,1242.6,478.5z"/>
	</g>
</g>
<g>
	<g>
		<rect x="1015.5" y="469.9" class="st0" width="51.4" height="0.9"/>
	</g>
	<g>
		<rect x="1290.2" y="469.9" class="st0" width="51.4" height="0.9"/>
	</g>
</g>
<text transform="matrix(1 0 0 1 352.7188 -623.5596)" class="st0" style="font-family:'CormorantGaramond-Light'; font-size:38.5154px; letter-spacing:14;">Dubai</text>
<text transform="matrix(1 0 0 1 51 -699.6416)" class="st0" style="font-family:'CormorantGaramond-Light'; font-size:119.8258px; letter-spacing:14;">LUXE ROSE</text>
<g>
	<line class="st1" x1="298.6" y1="-633.5" x2="239.2" y2="-633.5"/>
	<line class="st1" x1="616.2" y1="-633.5" x2="556.8" y2="-633.5"/>
</g>
<g>
	<path class="st0" d="M945.2,393.6c-0.4,0-0.7,0.1-0.7,0.3c-1.4,10.1-6.1,15.2-14,15.2h-15.3c-3,0-5.3-0.2-6.7-0.6
		c-1.4-0.4-2.4-1.1-2.9-2.2c-0.5-1.1-0.8-2.8-0.8-5.1v-54.9c0-2.4,0.3-4.2,0.8-5.3c0.5-1.2,1.5-2,3-2.4c1.5-0.4,3.8-0.7,6.9-0.7
		c0.2,0,0.2-0.2,0.2-0.7c0-0.5-0.1-0.7-0.2-0.7l-5.6,0.1c-3.4,0.2-6.1,0.2-8.3,0.2c-1.9,0-4.6-0.1-7.9-0.2l-5.9-0.1
		c-0.2,0-0.2,0.2-0.2,0.7c0,0.5,0.1,0.7,0.2,0.7c3.1,0,5.4,0.2,6.9,0.7c1.5,0.4,2.5,1.2,3,2.3c0.5,1.1,0.8,2.9,0.8,5.3v55.5
		c0,2.4-0.3,4.2-0.8,5.3c-0.5,1.2-1.5,1.9-3,2.3c-1.5,0.4-3.8,0.6-6.9,0.6c-0.2,0-0.2,0.2-0.2,0.7c0,0.5,0.1,0.7,0.2,0.7H943
		c0.7,0,1.2-0.1,1.4-0.4c0.2-0.3,0.4-0.7,0.4-1.4c0-4.1,0.4-9.3,1.1-15.6C945.9,393.7,945.7,393.6,945.2,393.6z"/>
	<path class="st0" d="M1020.2,405.3c-0.1-0.4-0.3-0.5-0.7-0.5h-0.2c-1.4,0.5-2.6,0.9-3.8,1.3c-1.2,0.4-2.1,0.5-2.9,0.5
		c-1.6,0-2.7-0.6-3.4-1.9c-0.7-1.2-1-3.2-1-5.9v-33.9c0-0.2-0.1-0.4-0.3-0.6c-0.2-0.2-0.4-0.2-0.7-0.2l-0.4,0.1l-12.6,5.6
		c-0.3,0.1-0.4,0.3-0.4,0.7c0.1,0.4,0.3,0.6,0.6,0.6h0.2c1.7-0.8,3.1-1.2,4.3-1.2c1.4,0,2.3,0.7,2.8,2.1c0.5,1.4,0.8,3.7,0.8,7v20.8
		c-1.9,2.2-4.1,4-6.5,5.4c-3.3,2-6.6,2.9-9.8,2.9c-3.4,0-5.9-1.2-7.5-3.5c-1.7-2.3-2.5-5.9-2.5-10.7v-29.1c0-0.2-0.1-0.4-0.4-0.6
		c-0.2-0.2-0.4-0.2-0.6-0.2l-0.5,0.1l-12.6,5.6c-0.3,0.1-0.4,0.3-0.3,0.7c0.1,0.4,0.3,0.6,0.7,0.6h0.2c1.7-0.8,3.1-1.2,4.3-1.2
		c1.3,0,2.2,0.7,2.7,2.1c0.5,1.4,0.8,3.7,0.8,7v18.6c0,4.8,1.1,8.4,3.3,10.9c2.2,2.5,5.3,3.7,9.2,3.7c3.8,0,7.6-1.1,11.2-3.2
		c2.7-1.6,5.5-4,8.3-7.2v1.1c0,2.8,0.4,5.1,1.1,6.9s1.5,2.7,2.2,2.7l0.5-0.1l13.4-6.2C1020.3,405.9,1020.4,405.7,1020.2,405.3z"/>
	<path class="st0" d="M1085.7,409.9c-1.8,0-3.8-0.7-6-2c-2.2-1.3-4.2-3.5-6.2-6.5l-10.4-15.7l8-10.9c2.1-2.9,4.2-5,6.5-6.3
		c2.2-1.3,4.4-2,6.5-2c0.2,0,0.2-0.2,0.2-0.7c0-0.5-0.1-0.7-0.2-0.7c-1.7,0-2.9,0-3.7,0.1l-4.2,0.1l-7.2-0.1
		c-1.1-0.1-2.8-0.1-4.9-0.1c-0.2,0-0.2,0.2-0.2,0.7c0,0.5,0.1,0.7,0.2,0.7c2.7,0,4.6,0.2,5.8,0.6c1.1,0.4,1.7,1,1.7,1.9
		c0,1-0.8,2.7-2.5,5l-6.8,10.2l-8.6-13c-1-1.7-1.6-2.8-1.6-3.2c0-0.6,0.3-0.9,1-1.1c0.7-0.2,1.8-0.3,3.3-0.3c0.2,0,0.2-0.2,0.2-0.7
		c0-0.5-0.1-0.7-0.2-0.7c-1.9,0-3.4,0-4.6,0.1l-7.5,0.1l-3.7-0.1c-0.8-0.1-2-0.1-3.7-0.1c-0.2,0-0.2,0.2-0.2,0.7
		c0,0.5,0.1,0.7,0.2,0.7c1.8,0,3.8,0.7,6,2c2.2,1.3,4.2,3.5,6.2,6.5l9.5,14.3l-8.9,12.3c-1.9,2.7-4.1,4.8-6.4,6.2
		c-2.4,1.4-4.5,2.1-6.5,2.1c-0.2,0-0.2,0.2-0.2,0.7c0,0.5,0.1,0.7,0.2,0.7c1.7,0,2.9,0,3.7-0.1l4.2-0.1l7.2,0.1
		c1,0.1,2.6,0.1,4.8,0.1c0.2,0,0.4-0.2,0.4-0.7c0-0.5-0.1-0.7-0.4-0.7c-4.8,0-7.2-0.9-7.2-2.6c0-0.6,0.2-1.4,0.7-2.2
		c0.4-0.8,1-1.7,1.6-2.7l7.9-11.4l9.5,14.3c1,1.7,1.6,2.8,1.6,3.2c0,0.6-0.3,0.9-1,1.1c-0.7,0.2-1.8,0.3-3.3,0.3
		c-0.2,0-0.4,0.2-0.4,0.7c0,0.5,0.1,0.7,0.4,0.7c1.9,0,3.4,0,4.6-0.1l7.6-0.1c1.6,0,2.8,0,3.6,0.1l3.8,0.1c0.2,0,0.2-0.2,0.2-0.7
		C1086,410.2,1085.9,409.9,1085.7,409.9z"/>
	<path class="st0" d="M1288.5,409.9c-3.5,0-7.1-1.2-10.7-3.7c-3.6-2.4-7.8-6.4-12.5-12c-4.6-5.4-10.2-12.9-17-22.4
		c0.1,0,0.3-0.1,0.4-0.2c4.2-2,7.5-4.7,10-8.2c2.4-3.5,3.6-7.3,3.6-11.4c0-4.8-1.7-8.7-5-11.6c-3.3-2.9-8-4.4-14-4.4
		c-2.2,0-4.8,0.1-7.7,0.4c-1.1,0.1-2.5,0.2-4,0.2c-1.6,0.1-3.2,0.1-5,0.1c-2.1,0-4.7-0.1-7.9-0.2l-5.8-0.1c-0.2,0-0.3,0.2-0.3,0.7
		c0,0.5,0.1,0.7,0.3,0.7c3.1,0,5.4,0.2,6.9,0.7c1.5,0.4,2.5,1.2,3,2.3c0.5,1.1,0.8,2.9,0.8,5.3v55.5c0,2.4-0.3,4.2-0.8,5.3
		c-0.6,1.2-1.6,1.9-3.1,2.3c-1.5,0.4-3.8,0.6-7,0.6c-0.2,0-0.2,0.2-0.2,0.7c0,0.5,0.1,0.7,0.2,0.7c2.6,0,4.6,0,6-0.1l7.9-0.1
		l8.2,0.1c1.4,0.1,3.4,0.1,5.8,0.1c0.2,0,0.3-0.2,0.3-0.7c0-0.5-0.1-0.7-0.3-0.7c-3.2,0-5.5-0.2-6.9-0.6c-1.4-0.4-2.4-1.2-2.9-2.3
		c-0.5-1.1-0.8-2.9-0.8-5.4v-27.3c3.1,0.2,4.8,0.4,5.2,0.4c2.6,0,5.1-0.3,7.6-0.9c7.8,11.6,14.6,20.7,20.2,27.3
		c5.8,6.8,9.7,10.2,11.8,10.2h13.9c0.2,0,0.4-0.2,0.4-0.7C1288.8,410.2,1288.7,409.9,1288.5,409.9z M1229.9,371.6v-25.2
		c0-3.6,0.6-6,1.8-7.1c1.2-1.1,3.3-1.7,6.4-1.7c5.7,0,10,1.4,13,4.2c3,2.8,4.5,7.3,4.5,13.4c0,5.6-1.4,9.8-4.3,12.5
		c-2.8,2.8-7.6,4.1-14.2,4.1C1234.6,371.9,1232.2,371.8,1229.9,371.6z"/>
	<path class="st0" d="M1349.6,376.2c-1.9-3.8-4.6-6.8-8-9.2c-3.5-2.3-7.5-3.5-12.2-3.5c-4.1,0-8,0.9-11.9,2.7
		c-3.9,1.8-7.1,4.5-9.6,8.1c-2.5,3.6-3.8,8.1-3.8,13.2c0,4.5,1,8.8,2.9,12.6c1.9,3.9,4.6,7,8.1,9.2c3.5,2.3,7.6,3.4,12.1,3.4
		s8.8-1,12.6-3c3.8-2,6.9-4.9,9.2-8.6c2.3-3.8,3.4-8.1,3.4-13.1C1352.5,384,1351.5,380,1349.6,376.2z M1341.6,406.1
		c-2.6,3.1-6.3,4.7-10.9,4.7c-3.8,0-7.2-1.2-10.2-3.7c-3-2.4-5.3-5.7-6.9-9.7c-1.7-4-2.5-8.4-2.5-13.2c0-5.9,1.3-10.4,3.8-13.6
		c2.5-3.2,6.1-4.7,10.7-4.7c3.9,0,7.4,1.1,10.4,3.3c3,2.2,5.4,5.3,7.1,9.2c1.7,3.9,2.5,8.2,2.5,13
		C1345.5,398.1,1344.2,403,1341.6,406.1z"/>
	<path class="st0" d="M1404.6,392.5c-1.1-1.6-2.5-3-4.1-4c-1.6-1-3.8-2.2-6.5-3.6c-3.8-1.8-6.6-3.6-8.4-5.2
		c-1.8-1.6-2.8-3.9-2.8-6.9c0-2.2,0.6-3.9,1.9-5.1c1.2-1.2,2.9-1.7,5.1-1.7c3,0,5.8,0.9,8.4,2.6c2.6,1.7,4,3.9,4,6.4
		c0,0.2,0.2,0.2,0.7,0.2c0.5,0,0.7-0.1,0.7-0.2l0.1-4.7c0.1-0.9,0.1-2.1,0.1-3.6c0-0.3-0.1-0.6-0.2-0.7c-0.1-0.2-0.4-0.4-0.9-0.6
		c-2.7-1.2-5.6-1.8-8.5-1.8c-4.3,0-8.1,1.2-11.3,3.5c-3.2,2.3-4.8,5.6-4.8,9.8c0,2.5,0.5,4.6,1.6,6.2c1.1,1.7,2.4,3,4,4
		c1.6,1,3.7,2.1,6.3,3.4c2.6,1.2,4.6,2.3,6.1,3.2c1.5,1,2.7,2.2,3.7,3.8c1,1.6,1.5,3.5,1.5,5.8c0,2.3-0.7,4.1-2.2,5.3
		c-1.4,1.2-3.5,1.8-6.2,1.8c-3.3,0-6.1-0.9-8.4-2.8c-2.4-1.9-4.3-4.8-5.8-8.8c-0.1-0.2-0.3-0.3-0.8-0.3c-0.4,0-0.7,0.2-0.7,0.4
		l0.2,8.6c0,0.6,0.2,1.1,0.7,1.4c3.3,2.5,7,3.7,11.3,3.7c5.2,0,9.3-1.4,12.3-4.1c3-2.8,4.5-6.1,4.5-10.1
		C1406.3,396.1,1405.7,394.1,1404.6,392.5z"/>
	<path class="st0" d="M1469.2,405.3c-0.2-0.3-0.4-0.4-0.7-0.4h-0.1c-2.1,1.4-4,2.4-5.8,3.1s-3.9,1-6.3,1c-5.9,0-10.5-2.2-13.8-6.5
		c-3.3-4.4-4.9-10-4.9-17c0-1.7,0.1-3.3,0.3-4.8l24.1,0h5.6c0.6,0,0.9-0.2,1.1-0.7c0.2-0.4,0.3-1.2,0.3-2.3c0-4.2-1.1-7.6-3.4-10
		c-2.3-2.4-5.7-3.7-10.1-3.7c-4.5,0-8.6,1.1-12.4,3.4c-3.8,2.3-6.8,5.4-9.1,9.3c-2.2,4-3.3,8.3-3.3,13c0,4.1,0.8,7.9,2.4,11.3
		c1.6,3.5,4.1,6.3,7.3,8.5c3.2,2.1,7.1,3.2,11.6,3.2c6.2,0,11.9-2.2,17.1-6.7C1469.4,405.8,1469.4,405.6,1469.2,405.3z
		 M1441.4,371.5c2.5-3.3,6-5,10.4-5c3.2,0,5.7,1,7.6,3c1.9,2,2.8,5,2.8,9v0.5l-24,0.4C1438.8,376.2,1439.8,373.6,1441.4,371.5z"/>
	<path class="st0" d="M1144.2,405.3c-0.2-0.3-0.4-0.4-0.7-0.4h-0.1c-2.1,1.4-4,2.4-5.8,3.1s-3.9,1-6.3,1c-5.9,0-10.5-2.2-13.8-6.5
		c-3.3-4.4-4.9-10-4.9-17c0-1.7,0.1-3.3,0.3-4.8l24.1,0h5.6c0.6,0,0.9-0.2,1.1-0.7c0.2-0.4,0.3-1.2,0.3-2.3c0-4.2-1.1-7.6-3.4-10
		c-2.3-2.4-5.7-3.7-10.1-3.7c-4.5,0-8.6,1.1-12.4,3.4c-3.8,2.3-6.8,5.4-9.1,9.3c-2.2,4-3.3,8.3-3.3,13c0,4.1,0.8,7.9,2.4,11.3
		c1.6,3.5,4.1,6.3,7.3,8.5c3.2,2.1,7.1,3.2,11.6,3.2c6.2,0,11.9-2.2,17.1-6.7C1144.4,405.8,1144.4,405.6,1144.2,405.3z
		 M1116.4,371.5c2.5-3.3,6-5,10.4-5c3.2,0,5.7,1,7.6,3c1.9,2,2.8,5,2.8,9v0.5l-24,0.4C1113.8,376.2,1114.8,373.6,1116.4,371.5z"/>
</g>
<g>
	<path d="M1133,127c-1-1.5-2.4-2.7-4.2-3.6c-1.8-0.9-3.9-1.3-6.2-1.3c-0.4,0-1,0-2,0.1c-0.8,0.1-1.6,0.1-2.4,0.1
		c-0.5,0-1.3,0-2.2-0.1l-1.6,0c0,0-0.1,0.1-0.1,0.2c0,0.1,0,0.2,0.1,0.2c0.9,0,1.5,0.1,1.9,0.2c0.4,0.1,0.7,0.3,0.8,0.7
		c0.1,0.3,0.2,0.8,0.2,1.5v15.4c0,0.7-0.1,1.2-0.2,1.5c-0.2,0.3-0.4,0.5-0.8,0.7c-0.4,0.1-1.1,0.2-1.9,0.2c0,0-0.1,0.1-0.1,0.2
		c0,0.1,0,0.2,0.1,0.2c0.7,0,1.3,0,1.7,0l2.2,0c0.6,0,1.1,0,1.5,0c0.5,0,0.8,0,1.1,0.1c0.8,0.1,1.5,0.1,2.2,0.1c2.1,0,4-0.5,5.7-1.4
		c1.7-0.9,3.1-2.2,4.1-3.8s1.5-3.6,1.5-5.7C1134.5,130.3,1134,128.5,1133,127z M1131.1,138.2c-0.8,1.5-1.9,2.6-3.4,3.3
		c-1.4,0.8-3.1,1.1-5,1.1c-1,0-1.7-0.1-2.2-0.3c-0.5-0.2-0.9-0.5-1.1-0.9c-0.2-0.4-0.3-0.9-0.3-1.6v-15c0-0.7,0.1-1.2,0.4-1.5
		c0.2-0.3,0.6-0.6,1.1-0.7c0.5-0.1,1.3-0.2,2.2-0.2c1.9,0,3.5,0.5,4.9,1.4c1.4,0.9,2.5,2.2,3.3,3.7c0.8,1.6,1.1,3.3,1.1,5.3
		C1132.3,135,1131.9,136.7,1131.1,138.2z"/>
	<path d="M1165.3,141.3c0-0.1-0.1-0.1-0.2-0.1h-0.1c-0.4,0.1-0.7,0.3-1,0.3c-0.3,0.1-0.6,0.1-0.8,0.1c-0.4,0-0.8-0.2-0.9-0.5
		c-0.2-0.3-0.3-0.9-0.3-1.6V130c0-0.1,0-0.1-0.1-0.2c-0.1,0-0.1-0.1-0.2-0.1l-0.1,0l-3.5,1.6c-0.1,0-0.1,0.1-0.1,0.2
		c0,0.1,0.1,0.2,0.2,0.2h0.1c0.5-0.2,0.9-0.3,1.2-0.3c0.4,0,0.6,0.2,0.8,0.6c0.1,0.4,0.2,1,0.2,1.9v5.8c-0.5,0.6-1.1,1.1-1.8,1.5
		c-0.9,0.5-1.8,0.8-2.7,0.8c-0.9,0-1.6-0.3-2.1-1c-0.5-0.6-0.7-1.6-0.7-3V130c0-0.1,0-0.1-0.1-0.2c-0.1,0-0.1-0.1-0.2-0.1l-0.1,0
		l-3.5,1.6c-0.1,0-0.1,0.1-0.1,0.2c0,0.1,0.1,0.2,0.2,0.2h0.1c0.5-0.2,0.9-0.3,1.2-0.3c0.4,0,0.6,0.2,0.7,0.6c0.1,0.4,0.2,1,0.2,1.9
		v5.2c0,1.3,0.3,2.3,0.9,3c0.6,0.7,1.5,1,2.5,1c1.1,0,2.1-0.3,3.1-0.9c0.8-0.5,1.5-1.1,2.3-2v0.3c0,0.8,0.1,1.4,0.3,1.9
		c0.2,0.5,0.4,0.7,0.6,0.7l0.1,0l3.7-1.7C1165.3,141.4,1165.3,141.4,1165.3,141.3z"/>
	<path d="M1193.1,132.4c-0.5-0.9-1.1-1.6-1.9-2.1c-0.8-0.5-1.7-0.7-2.6-0.7c-1.3,0-2.4,0.3-3.3,1c-0.7,0.5-1.5,1.2-2.2,2V119
		c0-0.1,0-0.1-0.1-0.2c-0.1,0-0.1-0.1-0.2-0.1l-0.2,0l-4,2c-0.1,0-0.1,0.1-0.1,0.2c0,0.1,0.1,0.2,0.1,0.2h0.1
		c0.7-0.3,1.2-0.5,1.6-0.5c0.4,0,0.7,0.2,0.8,0.5c0.2,0.4,0.3,0.9,0.3,1.8v16.5c0,0.8-0.1,1.4-0.4,1.8c-0.3,0.4-0.8,0.9-1.6,1.4
		c-0.1,0.1-0.1,0.1-0.1,0.2s0.1,0.1,0.2,0.1h0.1l2.4-1.1c1.3,1,2.8,1.4,4.5,1.4c1.2,0,2.4-0.3,3.6-0.9c1.1-0.6,2-1.4,2.7-2.6
		c0.7-1.1,1.1-2.5,1.1-4.1C1193.8,134.5,1193.6,133.4,1193.1,132.4z M1190.8,141.2c-0.8,1-1.9,1.5-3.2,1.5c-0.7,0-1.3-0.1-2-0.4
		c-0.7-0.3-1.3-0.7-1.8-1.3c-0.5-0.6-0.8-1.3-0.8-2.2v-5.6c0.7-0.7,1.4-1.4,2-1.8c0.8-0.6,1.6-0.8,2.5-0.8c1.3,0,2.4,0.5,3.2,1.6
		c0.8,1.1,1.2,2.6,1.2,4.6C1192,138.8,1191.6,140.2,1190.8,141.2z"/>
	<path d="M1221.8,141.1L1221.8,141.1c-0.9,0.3-1.5,0.5-1.9,0.5c-0.5,0-0.8-0.2-1-0.5c-0.2-0.4-0.3-0.9-0.3-1.8V133
		c0-1-0.2-1.9-0.6-2.4c-0.4-0.6-1.1-0.9-2-0.9c-0.7,0-1.6,0.2-2.5,0.5c-0.9,0.3-1.7,0.8-2.4,1.3c-0.7,0.5-1,1-1,1.5
		c0,0.2,0.1,0.5,0.3,0.6c0.2,0.2,0.4,0.3,0.7,0.3c0.4,0,0.6-0.1,0.8-0.3c0.1-0.2,0.2-0.5,0.3-0.9c0.2-0.6,0.4-1.2,0.9-1.7
		c0.4-0.5,1-0.7,1.8-0.7c1.5,0,2.3,1.2,2.3,3.7v2.3l-3.8,1.4c-1.2,0.4-2,0.9-2.5,1.4c-0.5,0.5-0.7,1.1-0.7,1.7
		c0,0.6,0.2,1.2,0.7,1.6c0.5,0.4,1.1,0.7,1.8,0.7c0.4,0,0.9-0.1,1.3-0.2c0.4-0.2,0.9-0.4,1.5-0.8l1.8-1.1c0,0.6,0.1,1.1,0.3,1.4
		c0.2,0.5,0.5,0.7,0.7,0.7c0.1,0,0.2,0,0.3-0.1l3.4-1.6c0.1,0,0.1-0.1,0.1-0.2C1221.9,141.2,1221.8,141.1,1221.8,141.1z
		 M1215.5,141.5c-0.7,0.4-1.2,0.6-1.7,0.6c-0.6,0-1.1-0.2-1.4-0.6c-0.3-0.4-0.5-0.8-0.5-1.4c0-0.4,0.1-0.8,0.4-1.1
		c0.2-0.3,0.7-0.6,1.3-0.9l3.5-1.3v3.6c0,0,0,0.1,0,0.1L1215.5,141.5z"/>
	<g>
		<path d="M1239.4,125.7c0.4,0,0.7-0.1,0.9-0.3c0.2-0.2,0.3-0.5,0.3-0.9c0-0.4-0.1-0.7-0.3-0.9c-0.2-0.2-0.5-0.3-0.9-0.3
			c-0.4,0-0.8,0.1-1,0.3c-0.2,0.2-0.3,0.5-0.3,0.9c0,0.4,0.1,0.7,0.3,0.9C1238.6,125.6,1239,125.7,1239.4,125.7z"/>
		<path d="M1242.6,142.5c-0.6,0-1.1-0.1-1.4-0.2c-0.3-0.1-0.5-0.3-0.6-0.7c-0.1-0.3-0.1-0.8-0.1-1.5v-6.3c0-1,0-1.8,0-2.6
			c0-0.7,0-1.2,0-1.3c0-0.1,0-0.1-0.1-0.2c-0.1,0-0.1-0.1-0.1-0.1l-0.1,0l-4.1,1.9c-0.1,0-0.1,0.1-0.1,0.2c0,0.1,0.1,0.2,0.2,0.2h0
			c0.6-0.3,1.2-0.5,1.6-0.5c0.4,0,0.7,0.2,0.8,0.5c0.2,0.4,0.3,0.9,0.3,1.8v6.3c0,0.7-0.1,1.2-0.2,1.5c-0.1,0.3-0.3,0.5-0.6,0.7
			c-0.3,0.1-0.8,0.2-1.4,0.2c0,0-0.1,0.1-0.1,0.2c0,0.1,0,0.2,0.1,0.2c0.5,0,0.9,0,1.2,0l1.7,0l1.8,0c0.3,0,0.7,0,1.2,0
			c0.1,0,0.1-0.1,0.1-0.2C1242.7,142.6,1242.7,142.5,1242.6,142.5z"/>
	</g>
</g>
<g>
	<g>
		<rect x="1015.5" y="133.9" width="51.4" height="0.9"/>
	</g>
	<g>
		<rect x="1290.2" y="133.9" width="51.4" height="0.9"/>
	</g>
</g>
<g>
	<path d="M945.2,57.6c-0.4,0-0.7,0.1-0.7,0.3c-1.4,10.1-6.1,15.2-14,15.2h-15.3c-3,0-5.3-0.2-6.7-0.6c-1.4-0.4-2.4-1.1-2.9-2.2
		c-0.5-1.1-0.8-2.8-0.8-5.1V10.3c0-2.4,0.3-4.2,0.8-5.3c0.5-1.2,1.5-2,3-2.4c1.5-0.4,3.8-0.7,6.9-0.7c0.2,0,0.2-0.2,0.2-0.7
		c0-0.5-0.1-0.7-0.2-0.7l-5.6,0.1c-3.4,0.2-6.1,0.2-8.3,0.2c-1.9,0-4.6-0.1-7.9-0.2l-5.9-0.1c-0.2,0-0.2,0.2-0.2,0.7
		c0,0.5,0.1,0.7,0.2,0.7c3.1,0,5.4,0.2,6.9,0.7c1.5,0.4,2.5,1.2,3,2.3c0.5,1.1,0.8,2.9,0.8,5.3v55.5c0,2.4-0.3,4.2-0.8,5.3
		c-0.5,1.2-1.5,1.9-3,2.3c-1.5,0.4-3.8,0.6-6.9,0.6c-0.2,0-0.2,0.2-0.2,0.7c0,0.5,0.1,0.7,0.2,0.7H943c0.7,0,1.2-0.1,1.4-0.4
		c0.2-0.3,0.4-0.7,0.4-1.4c0-4.1,0.4-9.3,1.1-15.6C945.9,57.7,945.7,57.6,945.2,57.6z"/>
	<path d="M1020.2,69.3c-0.1-0.4-0.3-0.5-0.7-0.5h-0.2c-1.4,0.5-2.6,0.9-3.8,1.3c-1.2,0.4-2.1,0.5-2.9,0.5c-1.6,0-2.7-0.6-3.4-1.9
		c-0.7-1.2-1-3.2-1-5.9V28.9c0-0.2-0.1-0.4-0.3-0.6c-0.2-0.2-0.4-0.2-0.7-0.2l-0.4,0.1l-12.6,5.6c-0.3,0.1-0.4,0.3-0.4,0.7
		c0.1,0.4,0.3,0.6,0.6,0.6h0.2c1.7-0.8,3.1-1.2,4.3-1.2c1.4,0,2.3,0.7,2.8,2.1c0.5,1.4,0.8,3.7,0.8,7v20.8c-1.9,2.2-4.1,4-6.5,5.4
		c-3.3,2-6.6,2.9-9.8,2.9c-3.4,0-5.9-1.2-7.5-3.5c-1.7-2.3-2.5-5.9-2.5-10.7V28.9c0-0.2-0.1-0.4-0.4-0.6c-0.2-0.2-0.4-0.2-0.6-0.2
		l-0.5,0.1l-12.6,5.6c-0.3,0.1-0.4,0.3-0.3,0.7c0.1,0.4,0.3,0.6,0.7,0.6h0.2c1.7-0.8,3.1-1.2,4.3-1.2c1.3,0,2.2,0.7,2.7,2.1
		c0.5,1.4,0.8,3.7,0.8,7v18.6c0,4.8,1.1,8.4,3.3,10.9c2.2,2.5,5.3,3.7,9.2,3.7c3.8,0,7.6-1.1,11.2-3.2c2.7-1.6,5.5-4,8.3-7.2v1.1
		c0,2.8,0.4,5.1,1.1,6.9s1.5,2.7,2.2,2.7l0.5-0.1l13.4-6.2C1020.3,69.9,1020.4,69.7,1020.2,69.3z"/>
	<path d="M1085.7,73.9c-1.8,0-3.8-0.7-6-2c-2.2-1.3-4.2-3.5-6.2-6.5l-10.4-15.7l8-10.9c2.1-2.9,4.2-5,6.5-6.3c2.2-1.3,4.4-2,6.5-2
		c0.2,0,0.2-0.2,0.2-0.7c0-0.5-0.1-0.7-0.2-0.7c-1.7,0-2.9,0-3.7,0.1l-4.2,0.1l-7.2-0.1c-1.1-0.1-2.8-0.1-4.9-0.1
		c-0.2,0-0.2,0.2-0.2,0.7c0,0.5,0.1,0.7,0.2,0.7c2.7,0,4.6,0.2,5.8,0.6c1.1,0.4,1.7,1,1.7,1.9c0,1-0.8,2.7-2.5,5l-6.8,10.2l-8.6-13
		c-1-1.7-1.6-2.8-1.6-3.2c0-0.6,0.3-0.9,1-1.1c0.7-0.2,1.8-0.3,3.3-0.3c0.2,0,0.2-0.2,0.2-0.7c0-0.5-0.1-0.7-0.2-0.7
		c-1.9,0-3.4,0-4.6,0.1l-7.5,0.1l-3.7-0.1c-0.8-0.1-2-0.1-3.7-0.1c-0.2,0-0.2,0.2-0.2,0.7c0,0.5,0.1,0.7,0.2,0.7c1.8,0,3.8,0.7,6,2
		c2.2,1.3,4.2,3.5,6.2,6.5l9.5,14.3l-8.9,12.3c-1.9,2.7-4.1,4.8-6.4,6.2c-2.4,1.4-4.5,2.1-6.5,2.1c-0.2,0-0.2,0.2-0.2,0.7
		c0,0.5,0.1,0.7,0.2,0.7c1.7,0,2.9,0,3.7-0.1l4.2-0.1l7.2,0.1c1,0.1,2.6,0.1,4.8,0.1c0.2,0,0.4-0.2,0.4-0.7c0-0.5-0.1-0.7-0.4-0.7
		c-4.8,0-7.2-0.9-7.2-2.6c0-0.6,0.2-1.4,0.7-2.2c0.4-0.8,1-1.7,1.6-2.7l7.9-11.4l9.5,14.3c1,1.7,1.6,2.8,1.6,3.2
		c0,0.6-0.3,0.9-1,1.1c-0.7,0.2-1.8,0.3-3.3,0.3c-0.2,0-0.4,0.2-0.4,0.7c0,0.5,0.1,0.7,0.4,0.7c1.9,0,3.4,0,4.6-0.1l7.6-0.1
		c1.6,0,2.8,0,3.6,0.1l3.8,0.1c0.2,0,0.2-0.2,0.2-0.7C1086,74.2,1085.9,73.9,1085.7,73.9z"/>
	<path d="M1288.5,73.9c-3.5,0-7.1-1.2-10.7-3.7c-3.6-2.4-7.8-6.4-12.5-12c-4.6-5.4-10.2-12.9-17-22.4c0.1,0,0.3-0.1,0.4-0.2
		c4.2-2,7.5-4.7,10-8.2c2.4-3.5,3.6-7.3,3.6-11.4c0-4.8-1.7-8.7-5-11.6c-3.3-2.9-8-4.4-14-4.4c-2.2,0-4.8,0.1-7.7,0.4
		c-1.1,0.1-2.5,0.2-4,0.2c-1.6,0.1-3.2,0.1-5,0.1c-2.1,0-4.7-0.1-7.9-0.2l-5.8-0.1c-0.2,0-0.3,0.2-0.3,0.7c0,0.5,0.1,0.7,0.3,0.7
		c3.1,0,5.4,0.2,6.9,0.7c1.5,0.4,2.5,1.2,3,2.3c0.5,1.1,0.8,2.9,0.8,5.3v55.5c0,2.4-0.3,4.2-0.8,5.3c-0.6,1.2-1.6,1.9-3.1,2.3
		c-1.5,0.4-3.8,0.6-7,0.6c-0.2,0-0.2,0.2-0.2,0.7c0,0.5,0.1,0.7,0.2,0.7c2.6,0,4.6,0,6-0.1l7.9-0.1l8.2,0.1c1.4,0.1,3.4,0.1,5.8,0.1
		c0.2,0,0.3-0.2,0.3-0.7c0-0.5-0.1-0.7-0.3-0.7c-3.2,0-5.5-0.2-6.9-0.6c-1.4-0.4-2.4-1.2-2.9-2.3c-0.5-1.1-0.8-2.9-0.8-5.4V38.3
		c3.1,0.2,4.8,0.4,5.2,0.4c2.6,0,5.1-0.3,7.6-0.9c7.8,11.6,14.6,20.7,20.2,27.3c5.8,6.8,9.7,10.2,11.8,10.2h13.9
		c0.2,0,0.4-0.2,0.4-0.7C1288.8,74.2,1288.7,73.9,1288.5,73.9z M1229.9,35.6V10.4c0-3.6,0.6-6,1.8-7.1c1.2-1.1,3.3-1.7,6.4-1.7
		c5.7,0,10,1.4,13,4.2c3,2.8,4.5,7.3,4.5,13.4c0,5.6-1.4,9.8-4.3,12.5c-2.8,2.8-7.6,4.1-14.2,4.1
		C1234.6,35.9,1232.2,35.8,1229.9,35.6z"/>
	<path d="M1349.6,40.2c-1.9-3.8-4.6-6.8-8-9.2c-3.5-2.3-7.5-3.5-12.2-3.5c-4.1,0-8,0.9-11.9,2.7c-3.9,1.8-7.1,4.5-9.6,8.1
		c-2.5,3.6-3.8,8.1-3.8,13.2c0,4.5,1,8.8,2.9,12.6c1.9,3.9,4.6,7,8.1,9.2c3.5,2.3,7.6,3.4,12.1,3.4s8.8-1,12.6-3
		c3.8-2,6.9-4.9,9.2-8.6c2.3-3.8,3.4-8.1,3.4-13.1C1352.5,48,1351.5,44,1349.6,40.2z M1341.6,70.1c-2.6,3.1-6.3,4.7-10.9,4.7
		c-3.8,0-7.2-1.2-10.2-3.7c-3-2.4-5.3-5.7-6.9-9.7c-1.7-4-2.5-8.4-2.5-13.2c0-5.9,1.3-10.4,3.8-13.6c2.5-3.2,6.1-4.7,10.7-4.7
		c3.9,0,7.4,1.1,10.4,3.3c3,2.2,5.4,5.3,7.1,9.2c1.7,3.9,2.5,8.2,2.5,13C1345.5,62.1,1344.2,67,1341.6,70.1z"/>
	<path d="M1404.6,56.5c-1.1-1.6-2.5-3-4.1-4c-1.6-1-3.8-2.2-6.5-3.6c-3.8-1.8-6.6-3.6-8.4-5.2c-1.8-1.6-2.8-3.9-2.8-6.9
		c0-2.2,0.6-3.9,1.9-5.1c1.2-1.2,2.9-1.7,5.1-1.7c3,0,5.8,0.9,8.4,2.6c2.6,1.7,4,3.9,4,6.4c0,0.2,0.2,0.2,0.7,0.2
		c0.5,0,0.7-0.1,0.7-0.2l0.1-4.7c0.1-0.9,0.1-2.1,0.1-3.6c0-0.3-0.1-0.6-0.2-0.7c-0.1-0.2-0.4-0.4-0.9-0.6c-2.7-1.2-5.6-1.8-8.5-1.8
		c-4.3,0-8.1,1.2-11.3,3.5c-3.2,2.3-4.8,5.6-4.8,9.8c0,2.5,0.5,4.6,1.6,6.2c1.1,1.7,2.4,3,4,4c1.6,1,3.7,2.1,6.3,3.4
		c2.6,1.2,4.6,2.3,6.1,3.2c1.5,1,2.7,2.2,3.7,3.8c1,1.6,1.5,3.5,1.5,5.8c0,2.3-0.7,4.1-2.2,5.3c-1.4,1.2-3.5,1.8-6.2,1.8
		c-3.3,0-6.1-0.9-8.4-2.8c-2.4-1.9-4.3-4.8-5.8-8.8c-0.1-0.2-0.3-0.3-0.8-0.3c-0.4,0-0.7,0.2-0.7,0.4l0.2,8.6c0,0.6,0.2,1.1,0.7,1.4
		c3.3,2.5,7,3.7,11.3,3.7c5.2,0,9.3-1.4,12.3-4.1c3-2.8,4.5-6.1,4.5-10.1C1406.3,60.1,1405.7,58.1,1404.6,56.5z"/>
	<path d="M1469.2,69.3c-0.2-0.3-0.4-0.4-0.7-0.4h-0.1c-2.1,1.4-4,2.4-5.8,3.1s-3.9,1-6.3,1c-5.9,0-10.5-2.2-13.8-6.5
		c-3.3-4.4-4.9-10-4.9-17c0-1.7,0.1-3.3,0.3-4.8l24.1,0h5.6c0.6,0,0.9-0.2,1.1-0.7c0.2-0.4,0.3-1.2,0.3-2.3c0-4.2-1.1-7.6-3.4-10
		c-2.3-2.4-5.7-3.7-10.1-3.7c-4.5,0-8.6,1.1-12.4,3.4c-3.8,2.3-6.8,5.4-9.1,9.3c-2.2,4-3.3,8.3-3.3,13c0,4.1,0.8,7.9,2.4,11.3
		c1.6,3.5,4.1,6.3,7.3,8.5c3.2,2.1,7.1,3.2,11.6,3.2c6.2,0,11.9-2.2,17.1-6.7C1469.4,69.8,1469.4,69.6,1469.2,69.3z M1441.4,35.5
		c2.5-3.3,6-5,10.4-5c3.2,0,5.7,1,7.6,3c1.9,2,2.8,5,2.8,9v0.5l-24,0.4C1438.8,40.2,1439.8,37.6,1441.4,35.5z"/>
	<path d="M1144.2,69.3c-0.2-0.3-0.4-0.4-0.7-0.4h-0.1c-2.1,1.4-4,2.4-5.8,3.1s-3.9,1-6.3,1c-5.9,0-10.5-2.2-13.8-6.5
		c-3.3-4.4-4.9-10-4.9-17c0-1.7,0.1-3.3,0.3-4.8l24.1,0h5.6c0.6,0,0.9-0.2,1.1-0.7c0.2-0.4,0.3-1.2,0.3-2.3c0-4.2-1.1-7.6-3.4-10
		c-2.3-2.4-5.7-3.7-10.1-3.7c-4.5,0-8.6,1.1-12.4,3.4c-3.8,2.3-6.8,5.4-9.1,9.3c-2.2,4-3.3,8.3-3.3,13c0,4.1,0.8,7.9,2.4,11.3
		c1.6,3.5,4.1,6.3,7.3,8.5c3.2,2.1,7.1,3.2,11.6,3.2c6.2,0,11.9-2.2,17.1-6.7C1144.4,69.8,1144.4,69.6,1144.2,69.3z M1116.4,35.5
		c2.5-3.3,6-5,10.4-5c3.2,0,5.7,1,7.6,3c1.9,2,2.8,5,2.8,9v0.5l-24,0.4C1113.8,40.2,1114.8,37.6,1116.4,35.5z"/>
</g>
</svg>
